<?xml version="1.0" encoding="UTF-8" standalone="no"?>
<svg
   width="267.01599"
   height="53.978001"
   viewBox="0 0 267.016 53.978"
   version="1.1"
   id="svg526"
   sodipodi:docname="sisbi.svg"
   xmlns:inkscape="http://www.inkscape.org/namespaces/inkscape"
   xmlns:sodipodi="http://sodipodi.sourceforge.net/DTD/sodipodi-0.dtd"
   xmlns="http://www.w3.org/2000/svg"
   xmlns:svg="http://www.w3.org/2000/svg">
  <sodipodi:namedview
     id="namedview528"
     pagecolor="#ffffff"
     bordercolor="#000000"
     borderopacity="0.25"
     inkscape:showpageshadow="2"
     inkscape:pageopacity="0.0"
     inkscape:pagecheckerboard="0"
     inkscape:deskcolor="#d1d1d1"
     showgrid="false" />
  <defs
     id="defs2" />
  <g
     transform="translate(0,0.001)"
     id="g524"
     style="fill:#ffffff">
    <g
       transform="translate(172.016,5.333)"
       id="g514"
       style="fill:#ffffff">
      <g
         transform="translate(0,17.829)"
         id="g10"
         style="fill:#ffffff">
        <path
           d="m 138.843,258.44 c -12.539,2.708 -18.308,-2.119 -18.308,-2.119 l 7.907,-17.21 -3.2,0.021 -11.3,24.372 h 46.977 c 0,0 -9.538,-7.772 -22.076,-5.064 z"
           transform="translate(-113.941,-239.11)"
           class="a"
           id="path4"
           style="fill:#ffffff" />
        <path
           d="m 611.766,239.892 h -3.188 l 7.9,17.19 c 0,0 -5.769,4.827 -18.308,2.119 -12.539,-2.708 -22.076,5.062 -22.076,5.062 h 46.977 z"
           transform="translate(-528.069,-239.811)"
           class="a"
           id="path6"
           style="fill:#ffffff" />
        <path
           d="m 565.394,382.169 0.066,9.527 0.094,-8.15 z"
           transform="translate(-518.482,-367.303)"
           class="a"
           id="path8"
           style="fill:#ffffff" />
      </g>
      <path
         d="m 287.63,163.215 a 32.64,32.64 0 0 1 -6.963,2.907 c 1.552,0.838 2.427,1.786 2.427,2.791 0,1.671 -2.423,3.188 -6.359,4.3 a 16.713,16.713 0 0 1 -32.448,0 c -3.936,-1.113 -6.36,-2.629 -6.36,-4.3 0,-1.069 0.991,-2.075 2.735,-2.952 a 33.3,33.3 0 0 1 -6.589,-2.806 l -8.879,19.789 c 0,0 4.713,5.44 16.56,4.161 11.847,-1.279 19.093,8.207 19.1,8.213 v 0.061 c 0,0 7.816,-8.785 19.662,-7.507 11.846,1.278 16.56,-4.161 16.56,-4.161 z"
         transform="translate(-213.634,-153.218)"
         class="a"
         id="path12"
         style="fill:#ffffff" />
      <path
         d="m 535.94,69.04 c 0.063,0.026 0.094,0.061 0.086,0.105 a 15.978,15.978 0 0 0 -2.326,0.3 c 0,0 0,-0.005 -0.006,-0.007 a 15.068,15.068 0 0 1 2.246,-0.394"
         transform="translate(-490.076,-68.884)"
         class="a"
         id="path14"
         style="fill:#ffffff" />
      <path
         d="m 535.448,68.558 a 1.082,1.082 0 0 1 0.3,0.044 14.909,14.909 0 0 0 -2.232,0.4 h -0.02 a 11.638,11.638 0 0 1 1.956,-0.441"
         transform="translate(-489.896,-68.452)"
         class="a"
         id="path16"
         style="fill:#ffffff" />
      <path
         d="m 534.657,68.55 a 4.388,4.388 0 0 1 0.471,-0.015 11.324,11.324 0 0 0 -1.929,0.442 h -0.032 a 6.968,6.968 0 0 1 1.489,-0.428"
         transform="translate(-489.605,-68.43)"
         class="a"
         id="path18"
         style="fill:#ffffff" />
      <path
         d="m 533.627,68.8 c 0.222,-0.033 0.427,-0.058 0.611,-0.073 a 6.638,6.638 0 0 0 -1.451,0.425 h -0.041 a 2.664,2.664 0 0 1 0.881,-0.356"
         transform="translate(-489.227,-68.601)"
         class="a"
         id="path20"
         style="fill:#ffffff" />
      <path
         d="m 532.418,69.635 c 0.251,-0.052 0.491,-0.1 0.715,-0.131 a 2.423,2.423 0 0 0 -0.835,0.349 l -0.048,0.009 c 0.044,-0.134 0.1,-0.209 0.168,-0.227"
         transform="translate(-488.783,-69.3)"
         class="a"
         id="path22"
         style="fill:#ffffff" />
      <path
         d="m 526.367,71.049 c 0.23,-0.061 0.473,-0.119 0.723,-0.172 -0.05,0.015 -0.089,0.086 -0.116,0.216 l -0.049,0.012 a 0.977,0.977 0 0 0 -0.559,-0.055"
         transform="translate(-483.511,-70.53)"
         class="a"
         id="path24"
         style="fill:#ffffff" />
      <path
         d="m 519.729,72.653 c 0.2,-0.065 0.411,-0.129 0.639,-0.19 a 1.133,1.133 0 0 1 0.607,0.042 l -0.043,0.013 a 4.272,4.272 0 0 0 -1.2,0.135"
         transform="translate(-477.563,-71.93)"
         class="a"
         id="path26"
         style="fill:#ffffff" />
      <path
         d="m 514.359,73.545 c 0.148,-0.063 0.322,-0.128 0.515,-0.193 a 4.567,4.567 0 0 1 1.243,-0.148 l -0.035,0.013 a 8.9,8.9 0 0 0 -1.723,0.328"
         transform="translate(-472.751,-72.614)"
         class="a"
         id="path28"
         style="fill:#ffffff" />
      <path
         d="m 510.662,73.865 a 2.5,2.5 0 0 1 0.352,-0.181 9.25,9.25 0 0 1 1.753,-0.342 l -0.024,0.012 a 13.293,13.293 0 0 0 -2.081,0.511"
         transform="translate(-469.438,-72.739)"
         class="a"
         id="path30"
         style="fill:#ffffff" />
      <path
         d="m 509.061,74.14 a 0.376,0.376 0 0 1 0.147,-0.15 13.529,13.529 0 0 1 2.1,-0.523 0.025,0.025 0 0 0 -0.01,0.01 15.749,15.749 0 0 0 -2.236,0.662"
         transform="translate(-468.003,-72.852)"
         class="a"
         id="path32"
         style="fill:#ffffff" />
      <path
         d="m 559.377,68.4 c 0.124,0.05 0.184,0.119 0.169,0.206 a 15.853,15.853 0 0 0 -2.287,-0.073 c 0.008,-0.048 -0.025,-0.086 -0.093,-0.113 a 14.655,14.655 0 0 1 2.211,-0.02"
         transform="translate(-511.11,-68.281)"
         class="a"
         id="path34"
         style="fill:#ffffff" />
      <path
         d="m 555.827,67.592 h 0.063 a 2.078,2.078 0 0 1 0.564,0.087 14.471,14.471 0 0 0 -2.2,0.025 1.171,1.171 0 0 0 -0.32,-0.048 11.2,11.2 0 0 1 1.891,-0.067"
         transform="translate(-508.215,-67.574)"
         class="a"
         id="path36"
         style="fill:#ffffff" />
      <path
         d="m 549.213,67.585 0.305,-0.021 c 0.555,-0.024 0.588,-0.026 0.909,-0.026 l 0.556,0.01 a 10.9,10.9 0 0 0 -1.734,0.073 4.754,4.754 0 0 0 -0.509,0.016 q 0.237,-0.035 0.473,-0.053"
         transform="translate(-503.559,-67.538)"
         class="a"
         id="path38"
         style="fill:#ffffff" />
      <path
         d="m 542.022,68.18 0.21,-0.03 c 0.356,-0.046 0.356,-0.046 0.548,-0.065 l 0.279,-0.026 q -0.211,0.017 -0.423,0.049 c -0.2,0.017 -0.42,0.043 -0.659,0.079 l 0.045,-0.007"
         transform="translate(-497.499,-68.005)"
         class="a"
         id="path40"
         style="fill:#ffffff" />
      <path
         d="m 539.389,69.351 0.2,-0.032 -0.033,0.005 -0.221,0.036 0.057,-0.01"
         transform="translate(-495.129,-69.134)"
         class="a"
         id="path42"
         style="fill:#ffffff" />
      <path
         d="m 534.513,69.265 0.2,-0.032 -0.033,0.005 -0.221,0.036 0.057,-0.01 m -0.618,0.116 h -0.005 c 0.272,-0.057 0.532,-0.1 0.773,-0.14 l 0.112,-0.019 -0.263,0.042 c -0.228,0.04 -0.342,0.06 -0.618,0.116"
         transform="translate(-490.252,-69.048)"
         class="a"
         id="path44"
         style="fill:#ffffff" />
      <path
         d="m 526.066,70.94 0.025,-0.006 c 0.247,-0.066 0.509,-0.128 0.779,-0.184 h 0.009 0.005 -0.009 c -0.365,0.079 -0.456,0.1 -0.809,0.192"
         transform="translate(-483.241,-70.413)"
         class="a"
         id="path46"
         style="fill:#ffffff" />
      <path
         d="m 517.424,73.31 c 0.138,-0.044 0.322,-0.1 0.461,-0.144 l 0.253,-0.073 c -0.2,0.056 -0.395,0.115 -0.572,0.173 l -0.142,0.044"
         transform="translate(-475.497,-72.516)"
         class="a"
         id="path48"
         style="fill:#ffffff" />
      <path
         d="m 517.424,72.823 c 0.138,-0.044 0.322,-0.1 0.461,-0.144 l 0.253,-0.073 c -0.2,0.056 -0.395,0.115 -0.572,0.173 l -0.142,0.044 m 0,0 q 0.112,-0.037 0.226,-0.067 c 0.212,-0.07 0.447,-0.14 0.7,-0.206 l -0.025,0.006 h -0.01 c -0.248,0.068 -0.248,0.068 -0.427,0.12 -0.139,0.042 -0.323,0.1 -0.461,0.144"
         transform="translate(-475.497,-72.029)"
         class="a"
         id="path50"
         style="fill:#ffffff" />
      <path
         d="m 505.405,75.408 c 0.2,-0.084 0.475,-0.193 0.679,-0.272 0.148,-0.054 0.347,-0.124 0.5,-0.176 q 0.084,-0.028 0.168,-0.053 c -0.208,0.07 -0.4,0.14 -0.555,0.208 q -0.4,0.127 -0.789,0.292"
         transform="translate(-464.727,-74.142)"
         class="a"
         id="path52"
         style="fill:#ffffff" />
      <path
         d="m 490.769,78.092 q 0.107,-0.069 0.243,-0.142 l 0.3,-0.156 c 0.255,-0.125 0.6,-0.288 0.856,-0.406 a 8.867,8.867 0 0 1 0.877,-0.33 2.686,2.686 0 0 0 -0.379,0.2 12.851,12.851 0 0 0 -1.9,0.839"
         transform="translate(-451.612,-76.069)"
         class="a"
         id="path54"
         style="fill:#ffffff" />
      <path
         d="m 487.625,80.216 a 0.74,0.74 0 0 1 0.289,-0.294 13.094,13.094 0 0 1 1.912,-0.85 0.4,0.4 0 0 0 -0.159,0.161 15.466,15.466 0 0 0 -2.043,0.982"
         transform="translate(-448.795,-77.873)"
         class="a"
         id="path56"
         style="fill:#ffffff" />
      <path
         d="m 582.4,69.145 c 0.181,0.073 0.268,0.173 0.247,0.3 a 15.922,15.922 0 0 0 -2.213,-0.42 c 0.016,-0.091 -0.047,-0.162 -0.175,-0.214 a 14.525,14.525 0 0 1 2.141,0.333"
         transform="translate(-531.8,-68.68)"
         class="a"
         id="path58"
         style="fill:#ffffff" />
      <path
         d="m 575.327,67.9 a 15.759,15.759 0 0 1 2.157,0.341 1.538,1.538 0 0 1 0.174,0.049 14.361,14.361 0 0 0 -2.129,-0.328 1.991,1.991 0 0 0 -0.515,-0.086 l 0.312,0.024"
         transform="translate(-527.104,-67.841)"
         class="a"
         id="path60"
         style="fill:#ffffff" />
      <path
         d="m 482.3,87.224 c 0.277,-0.171 0.646,-0.4 0.929,-0.56 q -0.113,0.062 -0.2,0.122 -0.37,0.208 -0.724,0.439"
         transform="translate(-444.027,-84.677)"
         class="a"
         id="path62"
         style="fill:#ffffff" />
      <path
         d="m 482.3,86.431 c 0.277,-0.171 0.646,-0.4 0.929,-0.56 q -0.113,0.062 -0.2,0.122 -0.37,0.208 -0.724,0.439 m 0,0 q 0.417,-0.272 0.858,-0.513 0.1,-0.068 0.238,-0.14 c -0.332,0.19 -0.772,0.449 -1.1,0.652"
         transform="translate(-444.027,-83.884)"
         class="a"
         id="path64"
         style="fill:#ffffff" />
      <path
         d="m 468.438,89.656 a 0.889,0.889 0 0 1 0.312,-0.351 l 0.8,-0.587 q 0.492,-0.34 1.017,-0.635 a 0.764,0.764 0 0 0 -0.3,0.305 15.347,15.347 0 0 0 -1.826,1.268"
         transform="translate(-431.601,-85.948)"
         class="a"
         id="path66"
         style="fill:#ffffff" />
      <path
         d="m 604.642,73.1 c 0.233,0.094 0.345,0.223 0.318,0.387 a 16.034,16.034 0 0 0 -2.1,-0.743 c 0.022,-0.131 -0.067,-0.233 -0.253,-0.308 a 14.559,14.559 0 0 1 2.037,0.664"
         transform="translate(-551.827,-71.923)"
         class="a"
         id="path68"
         style="fill:#ffffff" />
      <path
         d="m 602.805,72.5 a 14.4,14.4 0 0 0 -1.871,-0.6 c -0.044,-0.015 -0.093,-0.03 -0.146,-0.043 0.611,0.173 1.419,0.427 2.017,0.641"
         transform="translate(-550.199,-71.413)"
         class="a"
         id="path70"
         style="fill:#ffffff" />
      <path
         d="m 601.255,72.133 a 14.408,14.408 0 0 0 -1.871,-0.6 q -0.066,-0.023 -0.146,-0.043 c 0.611,0.173 1.419,0.427 2.017,0.641 m -2.042,-0.647 -0.155,-0.037 a 1.415,1.415 0 0 1 0.212,0.064 14.581,14.581 0 0 1 2.217,0.711 l -0.039,-0.015 a 15,15 0 0 0 -2.236,-0.724"
         transform="translate(-548.648,-71.043)"
         class="a"
         id="path72"
         style="fill:#ffffff" />
      <path
         d="m 451.742,102.946 a 0.731,0.731 0 0 1 0.16,-0.239 l 0.424,-0.446 c 0.382,-0.362 0.9,-0.836 1.3,-1.176 a 0.874,0.874 0 0 0 -0.3,0.343 15.366,15.366 0 0 0 -1.587,1.518"
         transform="translate(-416.64,-97.599)"
         class="a"
         id="path74"
         style="fill:#ffffff" />
      <path
         d="m 624.136,79.634 c 0.536,0.263 1.245,0.627 1.763,0.923 a 0.374,0.374 0 0 1 0.228,0.39 16.027,16.027 0 0 0 -1.956,-1.045 c 0.028,-0.167 -0.086,-0.3 -0.323,-0.394 q 0.145,0.061 0.288,0.126"
         transform="translate(-570.863,-78.264)"
         class="a"
         id="path76"
         style="fill:#ffffff" />
      <path
         d="m 622.535,78.975 -0.473,-0.2 0.038,0.015 q 0.219,0.09 0.435,0.187"
         transform="translate(-569.262,-77.606)"
         class="a"
         id="path78"
         style="fill:#ffffff" />
      <path
         d="m 437.77,120.055 a 0.7,0.7 0 0 1 0.1,-0.175 c 0.4,-0.552 0.949,-1.272 1.384,-1.795 a 0.728,0.728 0 0 0 -0.156,0.235 15.345,15.345 0 0 0 -1.326,1.734"
         transform="translate(-404.12,-112.833)"
         class="a"
         id="path80"
         style="fill:#ffffff" />
      <path
         d="m 645.374,90.7 c 0.517,0.358 1.2,0.851 1.689,1.243 a 0.388,0.388 0 0 1 0.171,0.385 15.981,15.981 0 0 0 -1.775,-1.324 0.372,0.372 0 0 0 -0.217,-0.386 l 0.132,0.083"
         transform="translate(-590.033,-88.222)"
         class="a"
         id="path82"
         style="fill:#ffffff" />
      <path
         d="m 426.758,139.028 a 0.644,0.644 0 0 1 0.034,-0.076 c 0.309,-0.613 0.748,-1.418 1.1,-2.007 a 0.7,0.7 0 0 0 -0.093,0.168 15.313,15.313 0 0 0 -1.042,1.916"
         transform="translate(-394.253,-129.732)"
         class="a"
         id="path84"
         style="fill:#ffffff" />
      <path
         d="m 665.795,106.2 a 0.4,0.4 0 0 1 0.121,0.363 15.769,15.769 0 0 0 -1.557,-1.58 0.389,0.389 0 0 0 -0.167,-0.384 c 0.5,0.464 1.135,1.108 1.6,1.6"
         transform="translate(-607.013,-100.746)"
         class="a"
         id="path86"
         style="fill:#ffffff" />
      <path
         d="m 682.207,123.294 a 0.416,0.416 0 0 1 0.072,0.32 15.509,15.509 0 0 0 -1.3,-1.814 0.4,0.4 0 0 0 -0.117,-0.361 c 0.424,0.542 0.96,1.288 1.35,1.855"
         transform="translate(-621.948,-115.838)"
         class="a"
         id="path88"
         style="fill:#ffffff" />
      <path
         d="m 695.9,143.015 a 0.437,0.437 0 0 1 0.031,0.258 15.4,15.4 0 0 0 -1.017,-2.026 0.418,0.418 0 0 0 -0.069,-0.316 c 0.338,0.614 0.763,1.447 1.054,2.084"
         transform="translate(-634.484,-133.305)"
         class="a"
         id="path90"
         style="fill:#ffffff" />
      <path
         d="m 706.445,165.093 a 0.451,0.451 0 0 1 0,0.18 15.435,15.435 0 0 0 -0.693,-2.215 0.435,0.435 0 0 0 -0.029,-0.252 c 0.24,0.678 0.542,1.589 0.717,2.286"
         transform="translate(-644.234,-152.907)"
         class="a"
         id="path92"
         style="fill:#ffffff" />
      <path
         d="m 509.084,74.351 c -0.06,-0.026 -0.087,-0.062 -0.075,-0.108 a 15.844,15.844 0 0 1 2.239,-0.672 c 0,0 0,0.006 0.005,0.007 a 15.457,15.457 0 0 0 -2.169,0.773"
         transform="translate(-467.954,-72.944)"
         class="a"
         id="path94"
         style="fill:#ffffff" />
      <path
         d="m 510.175,74.47 a 0.987,0.987 0 0 1 -0.287,-0.047 15.308,15.308 0 0 1 2.156,-0.778 h 0.019 a 12.5,12.5 0 0 0 -1.888,0.822"
         transform="translate(-468.744,-73.01)"
         class="a"
         id="path96"
         style="fill:#ffffff" />
      <path
         d="m 513.389,74.48 a 4.192,4.192 0 0 1 -0.464,0.012 12.2,12.2 0 0 1 1.862,-0.823 h 0.031 a 8.174,8.174 0 0 0 -1.429,0.812"
         transform="translate(-471.466,-73.031)"
         class="a"
         id="path98"
         style="fill:#ffffff" />
      <path
         d="m 518.38,74.364 c -0.22,0.033 -0.423,0.056 -0.6,0.071 a 7.853,7.853 0 0 1 1.391,-0.809 h 0.041 a 4.109,4.109 0 0 0 -0.827,0.743"
         transform="translate(-475.812,-72.989)"
         class="a"
         id="path100"
         style="fill:#ffffff" />
      <path
         d="m 524.784,74.15 c -0.25,0.052 -0.488,0.094 -0.711,0.128 a 3.886,3.886 0 0 1 0.781,-0.736 l 0.048,-0.009 a 2.8,2.8 0 0 0 -0.118,0.617"
         transform="translate(-481.455,-72.91)"
         class="a"
         id="path102"
         style="fill:#ffffff" />
      <path
         d="m 532.178,73.861 c -0.231,0.061 -0.475,0.119 -0.726,0.171 a 3.286,3.286 0 0 1 0.066,-0.606 l 0.049,-0.011 a 2.512,2.512 0 0 1 0.611,0.446"
         transform="translate(-488.068,-72.804)"
         class="a"
         id="path104"
         style="fill:#ffffff" />
      <path
         d="m 533.895,73.54 c -0.2,0.065 -0.414,0.128 -0.644,0.19 a 2.587,2.587 0 0 0 -0.659,-0.434 l 0.043,-0.013 a 5.252,5.252 0 0 1 1.26,0.257"
         transform="translate(-489.089,-72.686)"
         class="a"
         id="path106"
         style="fill:#ffffff" />
      <path
         d="m 534.859,73.07 c -0.151,0.064 -0.326,0.129 -0.521,0.193 a 5.524,5.524 0 0 0 -1.3,-0.243 l 0.035,-0.013 a 9.567,9.567 0 0 1 1.787,0.063"
         transform="translate(-489.488,-72.424)"
         class="a"
         id="path108"
         style="fill:#ffffff" />
      <path
         d="m 535.574,71.835 a 2.659,2.659 0 0 1 -0.36,0.182 9.879,9.879 0 0 0 -1.818,-0.05 l 0.024,-0.012 a 13.651,13.651 0 0 1 2.154,-0.12"
         transform="translate(-489.809,-71.385)"
         class="a"
         id="path110"
         style="fill:#ffffff" />
      <path
         d="m 535.975,70.237 a 0.4,0.4 0 0 1 -0.16,0.156 13.893,13.893 0 0 0 -2.172,0.132 0.028,0.028 0 0 0 0.011,-0.011 15.879,15.879 0 0 1 2.321,-0.278"
         transform="translate(-490.031,-69.957)"
         class="a"
         id="path112"
         style="fill:#ffffff" />
      <path
         d="m 487.668,81.937 c -0.117,-0.052 -0.17,-0.123 -0.147,-0.212 a 15.562,15.562 0 0 1 2.045,-0.992 c -0.012,0.049 0.016,0.088 0.081,0.116 a 15.559,15.559 0 0 0 -1.979,1.087"
         transform="translate(-448.697,-79.362)"
         class="a"
         id="path114"
         style="fill:#ffffff" />
      <path
         d="m 489.811,83.1 a 1.937,1.937 0 0 1 -0.564,-0.093 15.49,15.49 0 0 1 1.966,-1.092 1.06,1.06 0 0 0 0.31,0.051 13.237,13.237 0 0 0 -1.712,1.134"
         transform="translate(-450.248,-80.42)"
         class="a"
         id="path116"
         style="fill:#ffffff" />
      <path
         d="m 496.122,83.419 a 8.233,8.233 0 0 1 -0.911,0.024 13.01,13.01 0 0 1 1.687,-1.135 4.53,4.53 0 0 0 0.5,-0.013 9.669,9.669 0 0 0 -1.277,1.125"
         transform="translate(-455.592,-80.761)"
         class="a"
         id="path118"
         style="fill:#ffffff" />
      <path
         d="m 505.924,82.588 c -0.432,0.064 -0.831,0.11 -1.188,0.139 a 9.429,9.429 0 0 1 1.241,-1.122 c 0.2,-0.016 0.415,-0.041 0.653,-0.076 a 6.558,6.558 0 0 0 -0.706,1.059"
         transform="translate(-464.128,-80.075)"
         class="a"
         id="path120"
         style="fill:#ffffff" />
      <path
         d="m 518.5,81.06 c -0.49,0.1 -0.959,0.185 -1.4,0.252 a 6.441,6.441 0 0 1 0.662,-1.053 c 0.24,-0.037 0.5,-0.083 0.767,-0.138 -0.024,0.265 -0.034,0.58 -0.033,0.939"
         transform="translate(-475.21,-78.813)"
         class="a"
         id="path122"
         style="fill:#ffffff" />
      <path
         d="m 532.852,79 c -0.454,0.119 -0.933,0.233 -1.426,0.336 -0.018,-0.356 -0.024,-0.667 -0.017,-0.929 0.271,-0.057 0.534,-0.119 0.783,-0.185 a 6.517,6.517 0 0 1 0.659,0.777"
         transform="translate(-488.026,-77.113)"
         class="a"
         id="path124"
         style="fill:#ffffff" />
      <path
         d="m 541.476,76.711 c -0.388,0.127 -0.813,0.252 -1.263,0.372 a 6.346,6.346 0 0 0 -0.705,-0.765 c 0.247,-0.066 0.481,-0.135 0.694,-0.2 a 7.366,7.366 0 0 1 1.275,0.6"
         transform="translate(-495.285,-75.222)"
         class="a"
         id="path126"
         style="fill:#ffffff" />
      <path
         d="m 548.98,74.372 c -0.3,0.125 -0.641,0.253 -1.024,0.379 a 7.549,7.549 0 0 0 -1.313,-0.585 c 0.21,-0.07 0.4,-0.14 0.562,-0.208 a 10.835,10.835 0 0 1 1.775,0.414"
         transform="translate(-501.68,-73.291)"
         class="a"
         id="path128"
         style="fill:#ffffff" />
      <path
         d="m 554.913,72.16 a 5.245,5.245 0 0 1 -0.707,0.358 11.08,11.08 0 0 0 -1.8,-0.4 2.867,2.867 0 0 0 0.389,-0.2 14.163,14.163 0 0 1 2.123,0.24"
         transform="translate(-506.84,-71.465)"
         class="a"
         id="path130"
         style="fill:#ffffff" />
      <path
         d="m 558.8,70.179 a 0.8,0.8 0 0 1 -0.313,0.307 14.365,14.365 0 0 0 -2.141,-0.229 0.437,0.437 0 0 0 0.172,-0.169 15.83,15.83 0 0 1 2.282,0.09"
         transform="translate(-510.376,-69.816)"
         class="a"
         id="path132"
         style="fill:#ffffff" />
      <path
         d="m 468.5,92.808 c -0.171,-0.076 -0.248,-0.179 -0.215,-0.309 a 15.481,15.481 0 0 1 1.829,-1.276 c -0.023,0.093 0.031,0.166 0.153,0.22 a 15.861,15.861 0 0 0 -1.767,1.366"
         transform="translate(-431.458,-88.761)"
         class="a"
         id="path134"
         style="fill:#ffffff" />
      <path
         d="m 471.626,94.959 a 2.819,2.819 0 0 1 -0.822,-0.136 15.786,15.786 0 0 1 1.755,-1.37 2.013,2.013 0 0 0 0.585,0.1 14.3,14.3 0 0 0 -1.518,1.409"
         transform="translate(-433.722,-90.76)"
         class="a"
         id="path136"
         style="fill:#ffffff" />
      <path
         d="m 480.828,95.57 a 11.988,11.988 0 0 1 -1.328,0.035 14.127,14.127 0 0 1 1.5,-1.41 8.545,8.545 0 0 0 0.945,-0.025 11.842,11.842 0 0 0 -1.112,1.4"
         transform="translate(-441.514,-91.403)"
         class="a"
         id="path138"
         style="fill:#ffffff" />
      <path
         d="m 495.122,94.064 c -0.63,0.093 -1.212,0.161 -1.732,0.2 a 11.656,11.656 0 0 1 1.079,-1.4 c 0.37,-0.03 0.784,-0.078 1.233,-0.144 a 10.422,10.422 0 0 0 -0.579,1.34"
         transform="translate(-453.961,-90.107)"
         class="a"
         id="path140"
         style="fill:#ffffff" />
      <path
         d="m 513.459,91.293 c -0.715,0.148 -1.4,0.27 -2.035,0.367 a 10.448,10.448 0 0 1 0.538,-1.334 c 0.453,-0.069 0.94,-0.156 1.448,-0.261 0,0.367 0.02,0.778 0.048,1.228"
         transform="translate(-470.121,-87.724)"
         class="a"
         id="path142"
         style="fill:#ffffff" />
      <path
         d="m 533.816,87.556 c -0.662,0.174 -1.361,0.339 -2.079,0.49 -0.043,-0.447 -0.075,-0.855 -0.095,-1.218 0.511,-0.107 1.008,-0.225 1.48,-0.349 0.227,0.315 0.459,0.675 0.694,1.077"
         transform="translate(-488.238,-84.511)"
         class="a"
         id="path144"
         style="fill:#ffffff" />
      <path
         d="m 549.474,83.4 c -0.566,0.185 -1.185,0.368 -1.842,0.543 a 12.828,12.828 0 0 0 -0.737,-1.065 c 0.468,-0.125 0.908,-0.255 1.311,-0.386 a 10.524,10.524 0 0 1 1.268,0.909"
         transform="translate(-501.906,-80.94)"
         class="a"
         id="path146"
         style="fill:#ffffff" />
      <path
         d="m 563.172,79.159 c -0.432,0.182 -0.935,0.368 -1.493,0.553 a 10.63,10.63 0 0 0 -1.3,-0.9 c 0.4,-0.132 0.755,-0.264 1.063,-0.394 a 12.63,12.63 0 0 1 1.735,0.737"
         transform="translate(-513.985,-77.291)"
         class="a"
         id="path148"
         style="fill:#ffffff" />
      <path
         d="m 574.049,75.147 a 7.62,7.62 0 0 1 -1.031,0.522 12.782,12.782 0 0 0 -1.762,-0.726 5.429,5.429 0 0 0 0.734,-0.371 14.969,14.969 0 0 1 2.06,0.575"
         transform="translate(-523.734,-73.841)"
         class="a"
         id="path150"
         style="fill:#ffffff" />
      <path
         d="m 581.241,71.686 a 1.159,1.159 0 0 1 -0.457,0.448 15.093,15.093 0 0 0 -2.076,-0.565 0.827,0.827 0 0 0 0.326,-0.319 15.949,15.949 0 0 1 2.208,0.435"
         transform="translate(-530.413,-70.865)"
         class="a"
         id="path152"
         style="fill:#ffffff" />
      <path
         d="m 451.823,106.6 c -0.22,-0.1 -0.319,-0.23 -0.277,-0.4 a 15.483,15.483 0 0 1 1.59,-1.526 c -0.034,0.133 0.045,0.239 0.22,0.316 a 16.2,16.2 0 0 0 -1.533,1.607"
         transform="translate(-416.457,-100.815)"
         class="a"
         id="path154"
         style="fill:#ffffff" />
      <path
         d="m 455.845,109.67 a 3.636,3.636 0 0 1 -1.058,-0.175 16.178,16.178 0 0 1 1.522,-1.612 2.889,2.889 0 0 0 0.842,0.139 15.51,15.51 0 0 0 -1.306,1.648"
         transform="translate(-419.369,-103.691)"
         class="a"
         id="path156"
         style="fill:#ffffff" />
      <path
         d="m 467.69,110.555 a 15.456,15.456 0 0 1 -1.709,0.045 15.389,15.389 0 0 1 1.285,-1.649 12.3,12.3 0 0 0 1.359,-0.036 14.4,14.4 0 0 0 -0.935,1.639"
         transform="translate(-429.4,-104.616)"
         class="a"
         id="path158"
         style="fill:#ffffff" />
      <path
         d="m 486.09,108.419 c -0.811,0.12 -1.56,0.207 -2.23,0.26 a 14.408,14.408 0 0 1 0.9,-1.637 c 0.533,-0.043 1.129,-0.112 1.773,-0.207 a 15.517,15.517 0 0 0 -0.448,1.584"
         transform="translate(-445.421,-102.752)"
         class="a"
         id="path160"
         style="fill:#ffffff" />
      <path
         d="m 509.693,104.492 c -0.92,0.19 -1.8,0.348 -2.619,0.472 a 15.842,15.842 0 0 1 0.411,-1.578 c 0.652,-0.1 1.352,-0.225 2.083,-0.376 0.03,0.457 0.072,0.952 0.125,1.482"
         transform="translate(-466.223,-99.324)"
         class="a"
         id="path162"
         style="fill:#ffffff" />
      <path
         d="m 535.506,99.194 c -0.853,0.224 -1.752,0.437 -2.677,0.631 -0.066,-0.527 -0.123,-1.019 -0.167,-1.473 0.736,-0.155 1.451,-0.324 2.129,-0.5 0.236,0.408 0.475,0.858 0.715,1.344"
         transform="translate(-489.152,-94.7)"
         class="a"
         id="path164"
         style="fill:#ffffff" />
      <path
         d="m 557.733,93.307 c -0.729,0.238 -1.526,0.473 -2.372,0.7 -0.253,-0.482 -0.5,-0.928 -0.754,-1.333 0.673,-0.179 1.307,-0.366 1.887,-0.556 a 14.6,14.6 0 0 1 1.239,1.19"
         transform="translate(-508.816,-89.563)"
         class="a"
         id="path166"
         style="fill:#ffffff" />
      <path
         d="m 577.2,87.293 c -0.556,0.234 -1.2,0.474 -1.922,0.712 A 14.489,14.489 0 0 0 574,86.825 c 0.571,-0.189 1.086,-0.38 1.529,-0.566 a 14.663,14.663 0 0 1 1.665,1.034"
         transform="translate(-526.196,-84.314)"
         class="a"
         id="path168"
         style="fill:#ffffff" />
      <path
         d="m 592.674,81.6 a 9.818,9.818 0 0 1 -1.328,0.671 14.778,14.778 0 0 0 -1.691,-1.023 7.8,7.8 0 0 0 1.056,-0.534 15.829,15.829 0 0 1 1.962,0.886"
         transform="translate(-540.224,-79.349)"
         class="a"
         id="path170"
         style="fill:#ffffff" />
      <path
         d="m 602.944,76.7 a 1.491,1.491 0 0 1 -0.588,0.577 15.9,15.9 0 0 0 -1.977,-0.876 1.185,1.185 0 0 0 0.468,-0.459 16.127,16.127 0 0 1 2.1,0.758"
         transform="translate(-549.831,-75.067)"
         class="a"
         id="path172"
         style="fill:#ffffff" />
      <path
         d="m 437.867,122.941 c -0.264,-0.117 -0.382,-0.276 -0.332,-0.477 a 15.481,15.481 0 0 1 1.328,-1.741 c -0.043,0.17 0.057,0.305 0.281,0.4 a 16.4,16.4 0 0 0 -1.277,1.813"
         transform="translate(-403.9,-115.196)"
         class="a"
         id="path174"
         style="fill:#ffffff" />
      <path
         d="m 442.689,126.852 a 4.356,4.356 0 0 1 -1.269,-0.21 16.466,16.466 0 0 1 1.268,-1.817 3.7,3.7 0 0 0 1.076,0.178 16.665,16.665 0 0 0 -1.075,1.849"
         transform="translate(-407.391,-118.872)"
         class="a"
         id="path176"
         style="fill:#ffffff" />
      <path
         d="m 456.888,127.987 a 18.529,18.529 0 0 1 -2.049,0.054 16.642,16.642 0 0 1 1.057,-1.85 15.713,15.713 0 0 0 1.738,-0.045 17.154,17.154 0 0 0 -0.745,1.842"
         transform="translate(-419.416,-120.055)"
         class="a"
         id="path178"
         style="fill:#ffffff" />
      <path
         d="m 478.944,125.278 c -0.972,0.144 -1.87,0.248 -2.673,0.312 a 17.254,17.254 0 0 1 0.718,-1.84 c 0.681,-0.054 1.443,-0.143 2.267,-0.265 -0.125,0.567 -0.23,1.167 -0.312,1.792"
         transform="translate(-438.621,-117.671)"
         class="a"
         id="path180"
         style="fill:#ffffff" />
      <path
         d="m 507.24,120.3 c -1.1,0.228 -2.157,0.417 -3.14,0.566 0.073,-0.624 0.166,-1.222 0.279,-1.787 0.834,-0.127 1.728,-0.287 2.663,-0.48 0.055,0.535 0.121,1.1 0.2,1.7"
         transform="translate(-463.558,-113.29)"
         class="a"
         id="path182"
         style="fill:#ffffff" />
      <path
         d="m 537.885,113.578 c -1.022,0.268 -2.1,0.524 -3.209,0.757 -0.088,-0.6 -0.167,-1.161 -0.235,-1.694 0.94,-0.2 1.855,-0.414 2.722,-0.642 0.24,0.492 0.482,1.02 0.722,1.579"
         transform="translate(-490.746,-107.379)"
         class="a"
         id="path184"
         style="fill:#ffffff" />
      <path
         d="m 566.094,106.113 c -0.874,0.285 -1.829,0.567 -2.843,0.837 -0.251,-0.556 -0.5,-1.081 -0.757,-1.57 0.86,-0.229 1.671,-0.468 2.411,-0.71 q 0.608,0.666 1.189,1.442"
         transform="translate(-515.884,-100.812)"
         class="a"
         id="path186"
         style="fill:#ffffff" />
      <path
         d="m 590.807,98.486 c -0.667,0.28 -1.443,0.568 -2.3,0.854 q -0.593,-0.77 -1.218,-1.433 c 0.73,-0.242 1.388,-0.486 1.954,-0.724 a 16.873,16.873 0 0 1 1.568,1.3"
         transform="translate(-538.099,-94.103)"
         class="a"
         id="path188"
         style="fill:#ffffff" />
      <path
         d="m 610.477,91.273 a 11.742,11.742 0 0 1 -1.591,0.8 16.8,16.8 0 0 0 -1.59,-1.294 9.966,9.966 0 0 0 1.35,-0.683 16.6,16.6 0 0 1 1.832,1.172"
         transform="translate(-556.03,-87.756)"
         class="a"
         id="path190"
         style="fill:#ffffff" />
      <path
         d="m 623.552,85.051 a 1.792,1.792 0 0 1 -0.705,0.692 16.609,16.609 0 0 0 -1.847,-1.163 1.518,1.518 0 0 0 0.6,-0.587 16.215,16.215 0 0 1 1.952,1.058"
         transform="translate(-568.311,-82.283)"
         class="a"
         id="path192"
         style="fill:#ffffff" />
      <path
         d="m 426.869,141.471 c -0.3,-0.134 -0.437,-0.315 -0.379,-0.545 a 15.39,15.39 0 0 1 1.043,-1.921 c -0.051,0.2 0.068,0.364 0.336,0.483 a 16.5,16.5 0 0 0 -1,1.984"
         transform="translate(-394.001,-131.579)"
         class="a"
         id="path194"
         style="fill:#ffffff" />
      <path
         d="m 432.378,146.126 a 4.977,4.977 0 0 1 -1.449,-0.239 16.579,16.579 0 0 1 0.992,-1.987 4.408,4.408 0 0 0 1.284,0.212 17.494,17.494 0 0 0 -0.827,2.014"
         transform="translate(-397.989,-135.965)"
         class="a"
         id="path196"
         style="fill:#ffffff" />
      <path
         d="m 448.6,147.483 a 21.127,21.127 0 0 1 -2.341,0.061 17.617,17.617 0 0 1 0.811,-2.015 18.742,18.742 0 0 0 2.074,-0.054 19.679,19.679 0 0 0 -0.544,2.008"
         transform="translate(-411.728,-137.376)"
         class="a"
         id="path198"
         style="fill:#ffffff" />
      <path
         d="m 473.8,144.267 c -1.11,0.164 -2.137,0.283 -3.054,0.357 a 19.9,19.9 0 0 1 0.521,-2.006 c 0.812,-0.065 1.722,-0.171 2.705,-0.316 -0.079,0.631 -0.137,1.287 -0.172,1.966"
         transform="translate(-433.67,-134.532)"
         class="a"
         id="path200"
         style="fill:#ffffff" />
      <path
         d="m 506.128,138.354 c -1.26,0.26 -2.465,0.476 -3.587,0.647 0.027,-0.677 0.075,-1.332 0.144,-1.961 0.995,-0.151 2.062,-0.343 3.178,-0.573 0.078,0.6 0.167,1.233 0.265,1.888"
         transform="translate(-462.161,-129.303)"
         class="a"
         id="path202"
         style="fill:#ffffff" />
      <path
         d="m 540.89,130.375 c -1.168,0.306 -2.4,0.6 -3.666,0.864 -0.108,-0.652 -0.208,-1.281 -0.3,-1.881 1.122,-0.236 2.213,-0.494 3.248,-0.766 0.241,0.565 0.48,1.16 0.716,1.782"
         transform="translate(-492.973,-122.249)"
         class="a"
         id="path204"
         style="fill:#ffffff" />
      <path
         d="m 574.4,121.514 c -1,0.326 -2.09,0.648 -3.248,0.957 -0.245,-0.62 -0.495,-1.213 -0.746,-1.774 1.026,-0.273 1.994,-0.559 2.878,-0.848 q 0.576,0.784 1.116,1.665"
         transform="translate(-522.972,-114.413)"
         class="a"
         id="path206"
         style="fill:#ffffff" />
      <path
         d="m 603.764,112.458 c -0.762,0.32 -1.649,0.649 -2.632,0.975 q -0.549,-0.876 -1.141,-1.657 c 0.871,-0.289 1.657,-0.58 2.332,-0.864 a 18.717,18.717 0 0 1 1.442,1.546"
         transform="translate(-549.484,-106.405)"
         class="a"
         id="path208"
         style="fill:#ffffff" />
      <path
         d="m 627.149,103.893 a 13.45,13.45 0 0 1 -1.818,0.92 18.623,18.623 0 0 0 -1.461,-1.538 11.9,11.9 0 0 0 1.611,-0.815 17.171,17.171 0 0 1 1.668,1.433"
         transform="translate(-570.882,-98.831)"
         class="a"
         id="path210"
         style="fill:#ffffff" />
      <path
         d="m 642.713,96.506 a 2.045,2.045 0 0 1 -0.806,0.79 17.11,17.11 0 0 0 -1.68,-1.425 1.81,1.81 0 0 0 0.714,-0.7 16.131,16.131 0 0 1 1.771,1.335"
         transform="translate(-585.54,-92.3)"
         class="a"
         id="path212"
         style="fill:#ffffff" />
      <path
         d="m 419.066,161.825 c -0.333,-0.148 -0.481,-0.347 -0.418,-0.6 a 15.277,15.277 0 0 1 0.736,-2.067 c -0.058,0.232 0.078,0.415 0.383,0.55 a 16.355,16.355 0 0 0 -0.7,2.117"
         transform="translate(-386.972,-149.637)"
         class="a"
         id="path214"
         style="fill:#ffffff" />
      <path
         d="m 425.136,167.117 a 5.483,5.483 0 0 1 -1.6,-0.264 16.462,16.462 0 0 1 0.695,-2.12 5.018,5.018 0 0 0 1.462,0.242 18.076,18.076 0 0 0 -0.56,2.142"
         transform="translate(-391.368,-154.633)"
         class="a"
         id="path216"
         style="fill:#ffffff" />
      <path
         d="m 443.01,168.664 a 23.306,23.306 0 0 1 -2.579,0.067 18.278,18.278 0 0 1 0.547,-2.143 21.34,21.34 0 0 0 2.362,-0.062 21.614,21.614 0 0 0 -0.33,2.137"
         transform="translate(-406.505,-156.241)"
         class="a"
         id="path218"
         style="fill:#ffffff" />
      <path
         d="m 470.775,165.015 c -1.223,0.181 -2.354,0.312 -3.365,0.393 0.07,-0.728 0.174,-1.442 0.311,-2.136 0.925,-0.074 1.961,-0.194 3.081,-0.36 -0.032,0.682 -0.041,1.384 -0.027,2.1"
         transform="translate(-430.68,-153.002)"
         class="a"
         id="path220"
         style="fill:#ffffff" />
      <path
         d="m 506.269,158.306 c -1.389,0.287 -2.716,0.524 -3.953,0.713 -0.021,-0.717 -0.019,-1.419 0,-2.1 1.133,-0.172 2.348,-0.39 3.62,-0.653 0.1,0.658 0.21,1.339 0.329,2.039"
         transform="translate(-461.947,-147.047)"
         class="a"
         id="path222"
         style="fill:#ffffff" />
      <path
         d="m 544.458,149.254 c -1.287,0.338 -2.643,0.659 -4.039,0.952 -0.127,-0.7 -0.246,-1.377 -0.356,-2.033 1.278,-0.269 2.521,-0.563 3.7,-0.872 0.236,0.626 0.468,1.279 0.7,1.953"
         transform="translate(-495.785,-139.013)"
         class="a"
         id="path224"
         style="fill:#ffffff" />
      <path
         d="m 582.489,139.2 c -1.1,0.359 -2.3,0.714 -3.579,1.054 q -0.352,-1.008 -0.72,-1.947 c 1.169,-0.311 2.271,-0.637 3.277,-0.965 q 0.534,0.887 1.021,1.858"
         transform="translate(-529.949,-130.088)"
         class="a"
         id="path226"
         style="fill:#ffffff" />
      <path
         d="m 615.827,128.926 c -0.839,0.353 -1.816,0.715 -2.9,1.075 q -0.495,-0.966 -1.042,-1.851 c 0.992,-0.329 1.887,-0.661 2.656,-0.984 a 20.136,20.136 0 0 1 1.286,1.761"
         transform="translate(-560.143,-120.969)"
         class="a"
         id="path228"
         style="fill:#ffffff" />
      <path
         d="m 642.385,119.209 a 14.791,14.791 0 0 1 -2,1.013 19.889,19.889 0 0 0 -1.3,-1.754 13.562,13.562 0 0 0 1.835,-0.928 17.45,17.45 0 0 1 1.471,1.669"
         transform="translate(-584.512,-112.344)"
         class="a"
         id="path230"
         style="fill:#ffffff" />
      <path
         d="m 660.077,110.827 a 2.254,2.254 0 0 1 -0.888,0.871 17.351,17.351 0 0 0 -1.48,-1.663 2.062,2.062 0 0 0 0.813,-0.8 15.974,15.974 0 0 1 1.555,1.589"
         transform="translate(-601.205,-104.905)"
         class="a"
         id="path232"
         style="fill:#ffffff" />
      <path
         d="m 414.693,183.634 c -0.325,-0.144 -0.486,-0.335 -0.459,-0.574 0.094,-0.621 0.236,-1.446 0.371,-2.059 q 0.023,-0.093 0.048,-0.187 c -0.064,0.255 0.086,0.456 0.42,0.6 a 16.1,16.1 0 0 0 -0.381,2.215"
         transform="translate(-383.028,-169.043)"
         class="a"
         id="path234"
         style="fill:#ffffff" />
      <path
         d="m 421.184,189.44 a 5.861,5.861 0 0 1 -1.707,-0.282 16.248,16.248 0 0 1 0.376,-2.217 5.518,5.518 0 0 0 1.607,0.265 18.3,18.3 0 0 0 -0.275,2.234"
         transform="translate(-387.728,-174.533)"
         class="a"
         id="path236"
         style="fill:#ffffff" />
      <path
         d="m 440.3,191.143 a 24.943,24.943 0 0 1 -2.758,0.072 18.51,18.51 0 0 1 0.265,-2.234 23.473,23.473 0 0 0 2.6,-0.068 c -0.07,0.731 -0.1,1.476 -0.1,2.23"
         transform="translate(-403.912,-176.301)"
         class="a"
         id="path238"
         style="fill:#ffffff" />
      <path
         d="m 469.978,187.144 c -1.308,0.193 -2.517,0.334 -3.6,0.42 -0.006,-0.754 0.025,-1.5 0.089,-2.229 1.017,-0.081 2.155,-0.213 3.386,-0.4 0.018,0.721 0.058,1.457 0.122,2.2"
         transform="translate(-429.757,-172.74)"
         class="a"
         id="path240"
         style="fill:#ffffff" />
      <path
         d="m 506.863,179.794 c -1.485,0.306 -2.9,0.561 -4.226,0.762 -0.069,-0.746 -0.115,-1.482 -0.14,-2.2 1.245,-0.189 2.58,-0.429 3.978,-0.717 0.121,0.7 0.25,1.423 0.388,2.157"
         transform="translate(-462.121,-166.196)"
         class="a"
         id="path242"
         style="fill:#ffffff" />
      <path
         d="m 548.529,169.877 c -1.376,0.361 -2.827,0.7 -4.319,1.018 -0.144,-0.733 -0.28,-1.452 -0.408,-2.153 1.4,-0.3 2.77,-0.619 4.065,-0.958 q 0.34,1.017 0.662,2.093"
         transform="translate(-499.134,-157.367)"
         class="a"
         id="path244"
         style="fill:#ffffff" />
      <path
         d="m 590.207,158.862 c -1.175,0.384 -2.462,0.764 -3.827,1.127 q -0.328,-1.072 -0.68,-2.088 c 1.284,-0.342 2.5,-0.7 3.6,-1.061 q 0.481,0.976 0.9,2.022"
         transform="translate(-536.679,-147.56)"
         class="a"
         id="path246"
         style="fill:#ffffff" />
      <path
         d="m 626.751,147.6 c -0.9,0.378 -1.942,0.765 -3.1,1.149 q -0.429,-1.042 -0.92,-2.017 c 1.091,-0.362 2.074,-0.726 2.919,-1.081 a 21.1,21.1 0 0 1 1.1,1.949"
         transform="translate(-569.861,-137.538)"
         class="a"
         id="path248"
         style="fill:#ffffff" />
      <path
         d="m 655.873,136.958 a 15.826,15.826 0 0 1 -2.142,1.083 20.743,20.743 0 0 0 -1.114,-1.944 14.9,14.9 0 0 0 2.016,-1.02 17.5,17.5 0 0 1 1.24,1.881"
         transform="translate(-596.642,-128.059)"
         class="a"
         id="path250"
         style="fill:#ffffff" />
      <path
         d="m 675.285,127.775 a 2.409,2.409 0 0 1 -0.949,0.931 17.29,17.29 0 0 0 -1.247,-1.876 2.265,2.265 0 0 0 0.893,-0.876 15.677,15.677 0 0 1 1.3,1.821"
         transform="translate(-614.987,-119.884)"
         class="a"
         id="path252"
         style="fill:#ffffff" />
      <path
         d="m 508.706,202.462 c -1.546,0.319 -3.023,0.584 -4.4,0.793 -0.119,-0.763 -0.215,-1.52 -0.287,-2.268 1.328,-0.2 2.753,-0.457 4.244,-0.765 0.14,0.736 0.288,1.484 0.443,2.24"
         transform="translate(-463.485,-186.435)"
         class="a"
         id="path254"
         style="fill:#ffffff" />
      <path
         d="m 553.037,191.909 c -1.432,0.376 -2.942,0.733 -4.5,1.06 -0.159,-0.755 -0.311,-1.5 -0.456,-2.238 1.5,-0.315 2.955,-0.66 4.337,-1.023 q 0.32,1.078 0.614,2.2"
         transform="translate(-502.973,-177.014)"
         class="a"
         id="path256"
         style="fill:#ffffff" />
      <path
         d="m 597.4,180.189 c -1.224,0.4 -2.563,0.795 -3.983,1.173 q -0.3,-1.119 -0.626,-2.2 c 1.37,-0.365 2.662,-0.747 3.843,-1.132 q 0.417,1.049 0.766,2.156"
         transform="translate(-543.029,-166.551)"
         class="a"
         id="path258"
         style="fill:#ffffff" />
      <path
         d="m 636.3,168.21 c -0.934,0.393 -2.022,0.8 -3.228,1.2 q -0.351,-1.1 -0.776,-2.152 c 1.163,-0.386 2.213,-0.775 3.114,-1.154 a 21.334,21.334 0 0 1 0.89,2.11"
         transform="translate(-578.43,-155.858)"
         class="a"
         id="path260"
         style="fill:#ffffff" />
      <path
         d="m 667.306,156.882 a 16.469,16.469 0 0 1 -2.23,1.128 21.047,21.047 0 0 0 -0.9,-2.107 15.9,15.9 0 0 0 2.151,-1.088 17.343,17.343 0 0 1 0.976,2.067"
         transform="translate(-607.003,-145.746)"
         class="a"
         id="path262"
         style="fill:#ffffff" />
      <path
         d="m 687.989,147.112 a 2.506,2.506 0 0 1 -0.988,0.969 17.141,17.141 0 0 0 -0.98,-2.064 2.42,2.42 0 0 0 0.953,-0.935 15.5,15.5 0 0 1 1.015,2.03"
         transform="translate(-626.574,-137.024)"
         class="a"
         id="path264"
         style="fill:#ffffff" />
      <path
         d="m 414.43,231.469 c -0.274,-0.122 -0.438,-0.275 -0.478,-0.46 -0.123,-0.7 -0.259,-1.648 -0.329,-2.359 0.013,0.211 0.18,0.384 0.481,0.518 a 15.871,15.871 0 0 0 0.326,2.3"
         transform="translate(-382.482,-211.908)"
         class="a"
         id="path266"
         style="fill:#ffffff" />
      <path
         d="m 421.216,236.578 a 6.193,6.193 0 0 1 -1.8,-0.3 15.981,15.981 0 0 1 -0.327,-2.3 6.116,6.116 0 0 0 1.781,0.294 18.1,18.1 0 0 0 0.349,2.306"
         transform="translate(-387.378,-216.683)"
         class="a"
         id="path268"
         style="fill:#ffffff" />
      <path
         d="m 557.922,215.021 c -1.453,0.381 -2.985,0.744 -4.56,1.075 -0.172,-0.767 -0.338,-1.532 -0.5,-2.288 1.557,-0.327 3.07,-0.686 4.505,-1.062 q 0.291,1.123 0.553,2.275"
         transform="translate(-507.255,-197.657)"
         class="a"
         id="path270"
         style="fill:#ffffff" />
      <path
         d="m 603.9,202.877 c -1.241,0.405 -2.6,0.806 -4.04,1.19 q -0.261,-1.15 -0.557,-2.274 c 1.423,-0.379 2.765,-0.775 3.991,-1.176 q 0.342,1.108 0.606,2.26"
         transform="translate(-548.866,-186.788)"
         class="a"
         id="path272"
         style="fill:#ffffff" />
      <path
         d="m 644.222,190.465 c -0.948,0.4 -2.051,0.807 -3.274,1.213 q -0.263,-1.149 -0.609,-2.259 c 1.208,-0.4 2.3,-0.8 3.235,-1.2 a 21.306,21.306 0 0 1 0.649,2.244"
         transform="translate(-585.64,-175.68)"
         class="a"
         id="path274"
         style="fill:#ffffff" />
      <path
         d="m 676.374,178.728 a 16.708,16.708 0 0 1 -2.262,1.144 20.852,20.852 0 0 0 -0.651,-2.243 16.513,16.513 0 0 0 2.234,-1.13 17.15,17.15 0 0 1 0.679,2.229"
         transform="translate(-615.32,-165.177)"
         class="a"
         id="path276"
         style="fill:#ffffff" />
      <path
         d="m 697.832,168.6 a 2.545,2.545 0 0 1 -1,0.983 16.98,16.98 0 0 0 -0.68,-2.228 2.51,2.51 0 0 0 0.99,-0.971 15.553,15.553 0 0 1 0.692,2.216"
         transform="translate(-635.65,-156.116)"
         class="a"
         id="path278"
         style="fill:#ffffff" />
      <path
         d="m 713.445,189.331 a 0.479,0.479 0 0 1 -0.006,0.108 15.4,15.4 0 0 0 -0.32,-2.294 0.454,0.454 0 0 0 0,-0.174 c 0.123,0.7 0.272,1.647 0.329,2.36"
         transform="translate(-650.854,-174.56)"
         class="a"
         id="path280"
         style="fill:#ffffff" />
      <path
         d="m 714.645,235.955 -0.11,0.781 q 0.067,-0.4 0.112,-0.8 c 0,-0.009 0,-0.018 0,-0.027 l -0.006,0.05"
         transform="translate(-652.126,-218.41)"
         class="a"
         id="path282"
         style="fill:#ffffff" />
      <path
         d="m 711.939,234.481 -0.11,0.781 q 0.066,-0.4 0.112,-0.8 c 0,-0.009 0,-0.018 0,-0.027 l -0.006,0.05 m 0,0 0.024,-0.222 a 0.5,0.5 0 0 1 -0.017,0.089 15.154,15.154 0 0 1 -0.431,2.367 v -0.007 c 0.149,-0.664 0.335,-1.553 0.422,-2.227"
         transform="translate(-649.42,-216.935)"
         class="a"
         id="path284"
         style="fill:#ffffff" />
      <path
         d="m 710.956,258.045 0.06,-0.22 v 0.007 q -0.028,0.106 -0.058,0.212"
         transform="translate(-648.919,-238.052)"
         class="a"
         id="path286"
         style="fill:#ffffff" />
      <path
         d="m 418.442,256.18 a 0.816,0.816 0 0 1 -0.446,-0.374 c -0.24,-0.678 -0.53,-1.592 -0.717,-2.286 a 0.738,0.738 0 0 0 0.477,0.453 15.6,15.6 0 0 0 0.687,2.207"
         transform="translate(-385.758,-234.193)"
         class="a"
         id="path288"
         style="fill:#ffffff" />
      <path
         d="m 425.174,260.733 a 6.118,6.118 0 0 1 -1.781,-0.294 15.655,15.655 0 0 1 -0.686,-2.207 6.186,6.186 0 0 0 1.8,0.3 17.374,17.374 0 0 0 0.664,2.2"
         transform="translate(-390.622,-238.416)"
         class="a"
         id="path290"
         style="fill:#ffffff" />
      <path
         d="m 445.316,262.648 a 26,26 0 0 1 -2.877,0.075 17.628,17.628 0 0 1 -0.662,-2.2 26.3,26.3 0 0 0 2.912,-0.076 22.035,22.035 0 0 0 0.626,2.2"
         transform="translate(-407.712,-240.399)"
         class="a"
         id="path292"
         style="fill:#ffffff" />
      <path
         d="m 476.615,258.2 c -1.364,0.2 -2.626,0.348 -3.753,0.438 a 22.66,22.66 0 0 1 -0.623,-2.2 c 1.141,-0.091 2.417,-0.239 3.8,-0.444 q 0.262,1.147 0.578,2.21"
         transform="translate(-435.008,-236.406)"
         class="a"
         id="path294"
         style="fill:#ffffff" />
      <path
         d="m 516.77,250.015 c -1.549,0.32 -3.029,0.585 -4.408,0.795 q -0.312,-1.061 -0.574,-2.21 c 1.4,-0.213 2.895,-0.481 4.463,-0.8 q 0.259,1.148 0.52,2.22"
         transform="translate(-470.447,-229.064)"
         class="a"
         id="path296"
         style="fill:#ffffff" />
      <path
         d="m 682.8,202.329 a 16.507,16.507 0 0 1 -2.234,1.13 19.777,19.777 0 0 0 -0.362,-2.266 16.718,16.718 0 0 0 2.262,-1.144 16.618,16.618 0 0 1 0.335,2.28"
         transform="translate(-621.359,-186.279)"
         class="a"
         id="path298"
         style="fill:#ffffff" />
      <path
         d="m 704.49,192.107 a 2.515,2.515 0 0 1 -0.99,0.971 16.456,16.456 0 0 0 -0.333,-2.281 2.544,2.544 0 0 0 1,-0.983 15.45,15.45 0 0 1 0.321,2.293"
         transform="translate(-641.938,-177.108)"
         class="a"
         id="path300"
         style="fill:#ffffff" />
      <path
         d="m 426.364,279.714 a 0.9,0.9 0 0 1 -0.389,-0.287 c -0.338,-0.614 -0.762,-1.447 -1.054,-2.084 a 0.823,0.823 0 0 0 0.443,0.367 15.126,15.126 0 0 0 1,2"
         transform="translate(-392.607,-255.542)"
         class="a"
         id="path302"
         style="fill:#ffffff" />
      <path
         d="m 432.723,283.508 a 5.889,5.889 0 0 1 -1.715,-0.283 15.2,15.2 0 0 1 -1,-2 6.1,6.1 0 0 0 1.777,0.293 16.227,16.227 0 0 0 0.934,1.992"
         transform="translate(-397.168,-259.017)"
         class="a"
         id="path304"
         style="fill:#ffffff" />
      <path
         d="m 452.509,285.4 a 25.046,25.046 0 0 1 -2.769,0.072 16.368,16.368 0 0 1 -0.928,-1.992 25.933,25.933 0 0 0 2.871,-0.075 19.745,19.745 0 0 0 0.826,1.995"
         transform="translate(-414.015,-260.971)"
         class="a"
         id="path306"
         style="fill:#ffffff" />
      <path
         d="m 483.272,281.02 c -1.313,0.194 -2.528,0.335 -3.612,0.422 a 20.081,20.081 0 0 1 -0.817,-2 c 1.124,-0.09 2.383,-0.236 3.745,-0.437 q 0.319,1.053 0.685,2.011"
         transform="translate(-440.924,-257.034)"
         class="a"
         id="path308"
         style="fill:#ffffff" />
      <path
         d="m 522.749,272.972 c -1.491,0.308 -2.916,0.563 -4.244,0.765 q -0.358,-0.957 -0.674,-2.012 c 1.377,-0.21 2.854,-0.474 4.4,-0.793 q 0.261,1.064 0.519,2.04"
         transform="translate(-475.862,-249.797)"
         class="a"
         id="path310"
         style="fill:#ffffff" />
      <path
         d="m 568.356,262.115 c -1.382,0.362 -2.839,0.708 -4.337,1.023 q -0.25,-0.977 -0.507,-2.043 c 1.553,-0.326 3.063,-0.684 4.5,-1.06 q 0.2,1.078 0.348,2.081"
         transform="translate(-516.797,-240.031)"
         class="a"
         id="path312"
         style="fill:#ffffff" />
      <path
         d="m 437.726,301.1 a 0.97,0.97 0 0 1 -0.312,-0.2 c -0.424,-0.542 -0.967,-1.283 -1.349,-1.855 a 0.9,0.9 0 0 0 0.383,0.28 14.937,14.937 0 0 0 1.278,1.779"
         transform="translate(-402.592,-274.985)"
         class="a"
         id="path314"
         style="fill:#ffffff" />
      <path
         d="m 443.432,304.111 a 5.52,5.52 0 0 1 -1.607,-0.265 14.939,14.939 0 0 1 -1.273,-1.777 5.859,5.859 0 0 0 1.707,0.282 15.226,15.226 0 0 0 1.173,1.76"
         transform="translate(-406.613,-277.698)"
         class="a"
         id="path316"
         style="fill:#ffffff" />
      <path
         d="m 462.371,305.928 a 23.433,23.433 0 0 1 -2.6,0.068 15.3,15.3 0 0 1 -1.163,-1.76 24.932,24.932 0 0 0 2.758,-0.072 17.278,17.278 0 0 0 1,1.764"
         transform="translate(-422.797,-279.575)"
         class="a"
         id="path318"
         style="fill:#ffffff" />
      <path
         d="m 491.834,301.733 c -1.231,0.182 -2.369,0.314 -3.386,0.4 a 17.447,17.447 0 0 1 -0.987,-1.765 c 1.08,-0.086 2.289,-0.227 3.6,-0.42 q 0.368,0.948 0.775,1.79"
         transform="translate(-448.649,-275.793)"
         class="a"
         id="path320"
         style="fill:#ffffff" />
      <path
         d="m 529.654,294.021 c -1.4,0.288 -2.733,0.528 -3.978,0.717 q -0.4,-0.843 -0.758,-1.793 c 1.322,-0.2 2.741,-0.456 4.226,-0.762 q 0.258,0.967 0.509,1.837"
         transform="translate(-482.213,-268.84)"
         class="a"
         id="path322"
         style="fill:#ffffff" />
      <path
         d="m 573.357,283.616 c -1.295,0.34 -2.66,0.663 -4.065,0.958 q -0.24,-0.871 -0.49,-1.841 c 1.492,-0.314 2.943,-0.657 4.319,-1.018 0.1,0.663 0.174,1.3 0.236,1.9"
         transform="translate(-521.536,-259.459)"
         class="a"
         id="path324"
         style="fill:#ffffff" />
      <path
         d="m 617.138,272.059 c -1.107,0.361 -2.318,0.719 -3.6,1.061 -0.054,-0.606 -0.127,-1.242 -0.218,-1.906 1.364,-0.364 2.651,-0.743 3.827,-1.127 0.028,0.682 0.025,1.341 -0.007,1.972"
         transform="translate(-561.427,-249.04)"
         class="a"
         id="path326"
         style="fill:#ffffff" />
      <path
         d="m 655.361,260.249 c -0.844,0.355 -1.828,0.72 -2.919,1.081 0.039,-0.633 0.047,-1.294 0.023,-1.977 1.159,-0.384 2.2,-0.771 3.1,-1.149 a 16.281,16.281 0 0 1 -0.205,2.045"
         transform="translate(-596.485,-238.391)"
         class="a"
         id="path328"
         style="fill:#ffffff" />
      <path
         d="m 684.346,249.079 a 14.881,14.881 0 0 1 -2.016,1.02 16.123,16.123 0 0 0 0.217,-2.05 15.809,15.809 0 0 0 2.142,-1.083 14.989,14.989 0 0 1 -0.343,2.114"
         transform="translate(-623.267,-228.32)"
         class="a"
         id="path330"
         style="fill:#ffffff" />
      <path
         d="m 703.7,239.445 a 2.265,2.265 0 0 1 -0.894,0.876 14.966,14.966 0 0 0 0.35,-2.118 2.409,2.409 0 0 0 0.949,-0.931 15.1,15.1 0 0 1 -0.405,2.173"
         transform="translate(-641.612,-219.634)"
         class="a"
         id="path332"
         style="fill:#ffffff" />
      <path
         d="m 452.11,320.063 a 1.018,1.018 0 0 1 -0.223,-0.13 c -0.5,-0.464 -1.141,-1.1 -1.6,-1.6 a 0.974,0.974 0 0 0 0.3,0.2 14.871,14.871 0 0 0 1.521,1.533"
         transform="translate(-415.334,-292.271)"
         class="a"
         id="path334"
         style="fill:#ffffff" />
      <path
         d="m 456.944,322.319 a 5.024,5.024 0 0 1 -1.463,-0.242 14.779,14.779 0 0 1 -1.515,-1.53 5.483,5.483 0 0 0 1.6,0.264 14.235,14.235 0 0 0 1.38,1.508"
         transform="translate(-418.634,-294.256)"
         class="a"
         id="path336"
         style="fill:#ffffff" />
      <path
         d="m 474.587,324.019 a 21.357,21.357 0 0 1 -2.362,0.062 14.224,14.224 0 0 1 -1.367,-1.507 23.294,23.294 0 0 0 2.579,-0.067 14.684,14.684 0 0 0 1.15,1.513"
         transform="translate(-433.77,-296.011)"
         class="a"
         id="path338"
         style="fill:#ffffff" />
      <path
         d="m 502.05,320.107 c -1.12,0.165 -2.156,0.286 -3.081,0.36 a 14.811,14.811 0 0 1 -1.131,-1.515 c 1.01,-0.081 2.141,-0.212 3.364,-0.393 q 0.409,0.831 0.847,1.548"
         transform="translate(-457.946,-292.475)"
         class="a"
         id="path340"
         style="fill:#ffffff" />
      <path
         d="m 537.313,312.913 c -1.272,0.262 -2.487,0.48 -3.62,0.653 q -0.425,-0.717 -0.824,-1.551 c 1.237,-0.188 2.564,-0.426 3.953,-0.713 q 0.25,0.86 0.491,1.611"
         transform="translate(-489.337,-285.972)"
         class="a"
         id="path342"
         style="fill:#ffffff" />
      <path
         d="m 578.075,303.208 c -1.178,0.309 -2.421,0.6 -3.7,0.872 q -0.225,-0.753 -0.465,-1.617 c 1.4,-0.294 2.753,-0.615 4.039,-0.953 0.059,0.6 0.1,1.165 0.125,1.7"
         transform="translate(-526.114,-277.198)"
         class="a"
         id="path344"
         style="fill:#ffffff" />
      <path
         d="m 618.923,292.429 c -1.007,0.329 -2.109,0.654 -3.277,0.965 -0.016,-0.534 -0.049,-1.1 -0.1,-1.7 1.276,-0.34 2.479,-0.7 3.579,-1.054 a 16.936,16.936 0 0 1 -0.2,1.792"
         transform="translate(-563.422,-267.454)"
         class="a"
         id="path346"
         style="fill:#ffffff" />
      <path
         d="m 652.862,281.412 c -0.769,0.323 -1.664,0.655 -2.656,0.984 a 16.462,16.462 0 0 0 0.222,-1.8 c 1.084,-0.359 2.061,-0.721 2.9,-1.074 a 14.39,14.39 0 0 1 -0.466,1.89"
         transform="translate(-594.482,-257.494)"
         class="a"
         id="path348"
         style="fill:#ffffff" />
      <path
         d="m 679.236,270.993 a 13.572,13.572 0 0 1 -1.834,0.928 14.357,14.357 0 0 0 0.482,-1.9 14.815,14.815 0 0 0 2,-1.013 14.421,14.421 0 0 1 -0.65,1.981"
         transform="translate(-618.852,-248.076)"
         class="a"
         id="path350"
         style="fill:#ffffff" />
      <path
         d="m 697.258,260.962 -0.44,1.1 a 2.267,2.267 0 0 1 -0.787,0.74 14.424,14.424 0 0 0 0.66,-1.988 2.251,2.251 0 0 0 0.888,-0.871 q -0.142,0.514 -0.32,1.015"
         transform="translate(-635.544,-239.953)"
         class="a"
         id="path352"
         style="fill:#ffffff" />
      <path
         d="m 469.09,336.344 a 1.024,1.024 0 0 1 -0.125,-0.065 l -0.132,-0.083 c -0.517,-0.358 -1.2,-0.851 -1.689,-1.242 a 1.012,1.012 0 0 0 0.215,0.125 14.8,14.8 0 0 0 1.731,1.266"
         transform="translate(-430.442,-307.165)"
         class="a"
         id="path354"
         style="fill:#ffffff" />
      <path
         d="m 472.9,337.913 a 4.406,4.406 0 0 1 -1.284,-0.212 14.7,14.7 0 0 1 -1.722,-1.263 4.972,4.972 0 0 0 1.449,0.239 13.34,13.34 0 0 0 1.557,1.235"
         transform="translate(-432.907,-308.496)"
         class="a"
         id="path356"
         style="fill:#ffffff" />
      <path
         d="m 488.842,339.458 a 18.751,18.751 0 0 1 -2.074,0.054 13.241,13.241 0 0 1 -1.541,-1.234 21.178,21.178 0 0 0 2.341,-0.061 12.313,12.313 0 0 0 1.274,1.242"
         transform="translate(-446.646,-310.089)"
         class="a"
         id="path358"
         style="fill:#ffffff" />
      <path
         d="m 513.67,335.917 c -0.984,0.146 -1.893,0.251 -2.705,0.316 a 12.283,12.283 0 0 1 -1.251,-1.243 c 0.917,-0.073 1.943,-0.192 3.054,-0.357 a 13.66,13.66 0 0 0 0.9,1.284"
         transform="translate(-468.588,-306.878)"
         class="a"
         id="path360"
         style="fill:#ffffff" />
      <path
         d="m 545.56,329.409 c -1.117,0.23 -2.184,0.422 -3.178,0.573 a 14.03,14.03 0 0 1 -0.874,-1.288 c 1.123,-0.171 2.327,-0.387 3.587,-0.647 0.159,0.493 0.315,0.949 0.465,1.362"
         transform="translate(-497.079,-300.977)"
         class="a"
         id="path362"
         style="fill:#ffffff" />
      <path
         d="m 582.439,320.627 c -1.035,0.271 -2.126,0.53 -3.248,0.766 -0.138,-0.416 -0.283,-0.873 -0.432,-1.369 1.267,-0.266 2.5,-0.558 3.666,-0.864 0.022,0.526 0.026,1.016 0.014,1.467"
         transform="translate(-530.459,-293.013)"
         class="a"
         id="path364"
         style="fill:#ffffff" />
      <path
         d="m 619.276,310.874 c -0.884,0.289 -1.852,0.574 -2.878,0.848 0.022,-0.454 0.028,-0.947 0.015,-1.475 1.158,-0.309 2.25,-0.631 3.248,-0.957 a 12.715,12.715 0 0 1 -0.386,1.584"
         transform="translate(-564.187,-284.169)"
         class="a"
         id="path366"
         style="fill:#ffffff" />
      <path
         d="m 648.317,300.907 c -0.675,0.284 -1.461,0.575 -2.332,0.864 a 12.619,12.619 0 0 0 0.411,-1.593 c 0.984,-0.326 1.87,-0.655 2.632,-0.975 a 12.483,12.483 0 0 1 -0.711,1.7"
         transform="translate(-590.699,-275.13)"
         class="a"
         id="path368"
         style="fill:#ffffff" />
      <path
         d="m 671.476,291.48 a 11.88,11.88 0 0 1 -1.611,0.815 12.538,12.538 0 0 0 0.73,-1.712 13.436,13.436 0 0 0 1.818,-0.92 13.791,13.791 0 0 1 -0.938,1.817"
         transform="translate(-612.098,-266.581)"
         class="a"
         id="path370"
         style="fill:#ffffff" />
      <path
         d="m 686.847,284.078 a 2.432,2.432 0 0 1 -0.624,0.541 13.929,13.929 0 0 0 0.949,-1.824 2.289,2.289 0 0 0 0.776,-0.724 21.964,21.964 0 0 1 -1.1,2.007"
         transform="translate(-626.755,-259.778)"
         class="a"
         id="path372"
         style="fill:#ffffff" />
      <path
         d="m 487.629,349.44 c -0.394,-0.209 -0.921,-0.483 -1.3,-0.71 a 1.051,1.051 0 0 0 0.11,0.056 q 0.582,0.354 1.194,0.653"
         transform="translate(-447.63,-319.511)"
         class="a"
         id="path374"
         style="fill:#ffffff" />
      <path
         d="m 490.95,350.67 a 3.734,3.734 0 0 1 -1.067,-0.174 l -0.111,-0.047 a 14.6,14.6 0 0 1 -1.793,-0.929 4.357,4.357 0 0 0 1.269,0.21 12.518,12.518 0 0 0 1.7,0.941"
         transform="translate(-449.112,-320.218)"
         class="a"
         id="path376"
         style="fill:#ffffff" />
      <path
         d="m 504.819,352.025 a 15.668,15.668 0 0 1 -1.738,0.045 12.348,12.348 0 0 1 -1.684,-0.941 18.53,18.53 0 0 0 2.049,-0.053 10.162,10.162 0 0 0 1.373,0.949"
         transform="translate(-461.136,-321.613)"
         class="a"
         id="path378"
         style="fill:#ffffff" />
      <path
         d="m 526.444,348.938 c -0.824,0.122 -1.586,0.21 -2.267,0.265 a 10.028,10.028 0 0 1 -1.345,-0.951 c 0.8,-0.064 1.7,-0.168 2.673,-0.312 a 9.122,9.122 0 0 0 0.939,1"
         transform="translate(-480.343,-318.803)"
         class="a"
         id="path380"
         style="fill:#ffffff" />
      <path
         d="m 554.229,343.264 c -0.936,0.193 -1.83,0.353 -2.663,0.48 a 9.142,9.142 0 0 1 -0.906,-1 c 0.983,-0.15 2.037,-0.339 3.14,-0.566 0.149,0.406 0.293,0.77 0.43,1.089"
         transform="translate(-505.279,-313.637)"
         class="a"
         id="path382"
         style="fill:#ffffff" />
      <path
         d="m 586.377,335.609 c -0.867,0.227 -1.781,0.444 -2.722,0.642 -0.123,-0.322 -0.255,-0.688 -0.392,-1.1 1.109,-0.233 2.187,-0.488 3.209,-0.757 -0.015,0.445 -0.047,0.85 -0.1,1.212"
         transform="translate(-534.496,-306.667)"
         class="a"
         id="path384"
         style="fill:#ffffff" />
      <path
         d="m 617.5,327.107 c -0.741,0.242 -1.552,0.481 -2.411,0.71 a 11.614,11.614 0 0 0 0.13,-1.221 c 1.014,-0.27 1.97,-0.552 2.843,-0.837 a 9.134,9.134 0 0 1 -0.561,1.348"
         transform="translate(-563.013,-298.927)"
         class="a"
         id="path386"
         style="fill:#ffffff" />
      <path
         d="m 641.834,318.417 c -0.566,0.238 -1.224,0.482 -1.954,0.724 a 9.184,9.184 0 0 0 0.591,-1.358 c 0.861,-0.286 1.637,-0.573 2.3,-0.854 a 10.813,10.813 0 0 1 -0.941,1.487"
         transform="translate(-585.228,-291.015)"
         class="a"
         id="path388"
         style="fill:#ffffff" />
      <path
         d="m 661.24,310.2 a 9.987,9.987 0 0 1 -1.349,0.683 10.977,10.977 0 0 0 0.963,-1.5 11.731,11.731 0 0 0 1.591,-0.8 13.279,13.279 0 0 1 -1.2,1.619"
         transform="translate(-603.159,-283.533)"
         class="a"
         id="path390"
         style="fill:#ffffff" />
      <path
         d="m 674.041,304.768 a 2.449,2.449 0 0 1 -0.445,0.359 13.447,13.447 0 0 0 1.218,-1.628 2.435,2.435 0 0 0 0.611,-0.526 c -0.4,0.552 -0.935,1.284 -1.384,1.795"
         transform="translate(-615.441,-278.508)"
         class="a"
         id="path392"
         style="fill:#ffffff" />
      <path
         d="m 510.939,360.448 a 3.7,3.7 0 0 1 -0.666,-0.085 15,15 0 0 1 -2.185,-0.708 3.743,3.743 0 0 0 1.034,0.166 11.855,11.855 0 0 0 1.817,0.627"
         transform="translate(-467.131,-329.3)"
         class="a"
         id="path394"
         style="fill:#ffffff" />
      <path
         d="m 522.205,361.5 a 12.3,12.3 0 0 1 -1.359,0.036 11.65,11.65 0 0 1 -1.8,-0.626 15.432,15.432 0 0 0 1.709,-0.045 8.465,8.465 0 0 0 1.446,0.635"
         transform="translate(-476.954,-330.385)"
         class="a"
         id="path396"
         style="fill:#ffffff" />
      <path
         d="m 540.119,358.942 c -0.645,0.1 -1.241,0.164 -1.773,0.207 a 8.234,8.234 0 0 1 -1.415,-0.638 c 0.669,-0.054 1.419,-0.141 2.229,-0.26 a 5.752,5.752 0 0 0 0.959,0.691"
         transform="translate(-492.976,-328.042)"
         class="a"
         id="path398"
         style="fill:#ffffff" />
      <path
         d="m 563.149,354.234 c -0.732,0.151 -1.431,0.276 -2.083,0.376 a 5.637,5.637 0 0 1 -0.922,-0.7 c 0.82,-0.125 1.7,-0.282 2.62,-0.472 0.136,0.311 0.265,0.577 0.386,0.793"
         transform="translate(-513.778,-323.732)"
         class="a"
         id="path400"
         style="fill:#ffffff" />
      <path
         d="m 589.816,347.884 c -0.678,0.178 -1.393,0.347 -2.129,0.5 -0.106,-0.22 -0.221,-0.488 -0.344,-0.8 0.925,-0.194 1.824,-0.407 2.677,-0.631 a 5.85,5.85 0 0 1 -0.2,0.931"
         transform="translate(-538.151,-317.918)"
         class="a"
         id="path402"
         style="fill:#ffffff" />
      <path
         d="m 614.482,340.83 c -0.579,0.189 -1.214,0.376 -1.886,0.556 a 5.648,5.648 0 0 0 0.243,-0.941 c 0.846,-0.225 1.643,-0.461 2.372,-0.7 a 6.413,6.413 0 0 1 -0.728,1.084"
         transform="translate(-560.78,-311.46)"
         class="a"
         id="path404"
         style="fill:#ffffff" />
      <path
         d="m 633.519,333.622 c -0.442,0.186 -0.958,0.377 -1.529,0.566 a 6.608,6.608 0 0 0 0.761,-1.1 c 0.718,-0.238 1.366,-0.478 1.922,-0.712 a 9.5,9.5 0 0 1 -1.154,1.241"
         transform="translate(-578.158,-304.86)"
         class="a"
         id="path406"
         style="fill:#ffffff" />
      <path
         d="m 648.7,326.8 a 7.794,7.794 0 0 1 -1.056,0.534 4.649,4.649 0 0 1 2.507,-1.923 12.846,12.846 0 0 1 -1.451,1.389"
         transform="translate(-592.186,-298.619)"
         class="a"
         id="path408"
         style="fill:#ffffff" />
      <path
         d="m 659.839,322.083 c -0.382,0.362 -0.9,0.837 -1.3,1.177 q -0.077,0.06 -0.172,0.122 a 13.094,13.094 0 0 0 1.466,-1.4 2.449,2.449 0 0 0 0.431,-0.345 l -0.423,0.445"
         transform="translate(-601.794,-295.234)"
         class="a"
         id="path410"
         style="fill:#ffffff" />
      <path
         d="m 659.178,321.005 c -0.383,0.362 -0.9,0.837 -1.3,1.177 -0.051,0.04 -0.108,0.081 -0.172,0.122 a 13.049,13.049 0 0 0 1.467,-1.4 2.451,2.451 0 0 0 0.431,-0.345 l -0.423,0.445 m 0,0 0.536,-0.57 a 2.645,2.645 0 0 1 -0.517,0.4 12.871,12.871 0 0 1 -1.569,1.517 c 0.085,-0.054 0.161,-0.106 0.227,-0.157 0.406,-0.349 0.948,-0.814 1.324,-1.194"
         transform="translate(-601.132,-294.156)"
         class="a"
         id="path412"
         style="fill:#ffffff" />
      <path
         d="m 533.646,367.312 h -0.049 l -0.313,-0.024 a 15.754,15.754 0 0 1 -2.157,-0.341 3.763,3.763 0 0 0 0.618,0.075 11.448,11.448 0 0 0 1.9,0.292"
         transform="translate(-487.776,-335.832)"
         class="a"
         id="path414"
         style="fill:#ffffff" />
      <path
         d="m 540.682,367.673 a 8.619,8.619 0 0 1 -0.945,0.025 11.2,11.2 0 0 1 -1.877,-0.291 12.045,12.045 0 0 0 1.328,-0.035 7.349,7.349 0 0 0 1.494,0.3"
         transform="translate(-493.81,-336.215)"
         class="a"
         id="path416"
         style="fill:#ffffff" />
      <path
         d="m 554.444,365.7 c -0.448,0.066 -0.863,0.114 -1.233,0.144 a 7.062,7.062 0 0 1 -1.461,-0.3 c 0.52,-0.042 1.1,-0.109 1.732,-0.2 a 3.65,3.65 0 0 0 0.962,0.362"
         transform="translate(-506.256,-334.394)"
         class="a"
         id="path418"
         style="fill:#ffffff" />
      <path
         d="m 572.153,362.078 c -0.509,0.105 -0.995,0.192 -1.448,0.261 a 3.451,3.451 0 0 1 -0.921,-0.368 c 0.637,-0.1 1.32,-0.219 2.035,-0.367 a 2.5,2.5 0 0 0 0.334,0.474"
         transform="translate(-522.416,-331.047)"
         class="a"
         id="path420"
         style="fill:#ffffff" />
      <path
         d="m 592.681,357.188 c -0.471,0.124 -0.968,0.241 -1.48,0.349 a 2.9,2.9 0 0 1 -0.288,-0.484 c 0.719,-0.151 1.417,-0.317 2.079,-0.49 a 2.22,2.22 0 0 1 -0.312,0.625"
         transform="translate(-541.351,-326.53)"
         class="a"
         id="path422"
         style="fill:#ffffff" />
      <path
         d="m 610.247,351.758 c -0.4,0.131 -0.844,0.262 -1.311,0.386 a 2.3,2.3 0 0 0 0.354,-0.636 c 0.657,-0.175 1.277,-0.358 1.842,-0.543 a 4.675,4.675 0 0 1 -0.886,0.793"
         transform="translate(-557.5,-321.513)"
         class="a"
         id="path424"
         style="fill:#ffffff" />
      <path
         d="m 623.479,346.207 c -0.308,0.129 -0.666,0.262 -1.063,0.394 a 4.918,4.918 0 0 0 0.922,-0.8 c 0.558,-0.185 1.061,-0.371 1.493,-0.553 a 8.612,8.612 0 0 1 -1.353,0.964"
         transform="translate(-569.579,-316.386)"
         class="a"
         id="path426"
         style="fill:#ffffff" />
      <path
         d="m 634.642,340.592 c -0.236,0.142 -0.549,0.335 -0.789,0.47 -0.157,0.086 -0.344,0.176 -0.558,0.268 a 8.924,8.924 0 0 0 1.38,-0.976 7.632,7.632 0 0 0 1.031,-0.522 12.61,12.61 0 0 1 -1.065,0.76"
         transform="translate(-579.329,-311.537)"
         class="a"
         id="path428"
         style="fill:#ffffff" />
      <path
         d="m 648.322,339.244 q 0.469,-0.31 0.907,-0.657 c 0.053,-0.035 0.1,-0.07 0.147,-0.1 -0.314,0.231 -0.73,0.543 -1.054,0.761"
         transform="translate(-592.793,-310.328)"
         class="a"
         id="path430"
         style="fill:#ffffff" />
      <path
         d="m 646.466,338.287 q 0.469,-0.31 0.907,-0.657 c 0.053,-0.035 0.1,-0.07 0.147,-0.1 -0.314,0.231 -0.731,0.543 -1.054,0.761 m -0.028,0.018 c 0.371,-0.261 0.864,-0.611 1.221,-0.89 -0.066,0.051 -0.142,0.1 -0.226,0.157 a 12.659,12.659 0 0 1 -1.182,0.854 l 0.187,-0.121"
         transform="translate(-590.938,-309.372)"
         class="a"
         id="path432"
         style="fill:#ffffff" />
      <path
         d="m 555.339,370.482 -0.095,-0.006 h -0.04 l 0.135,0.008"
         transform="translate(-509.351,-338.995)"
         class="a"
         id="path434"
         style="fill:#ffffff" />
      <path
         d="m 559.431,370.376 -0.239,0.015 c -0.556,0.024 -0.589,0.026 -0.909,0.026 -0.206,0 -0.48,-0.007 -0.686,-0.015 h -0.084 a 8.232,8.232 0 0 0 0.911,-0.024 6.9,6.9 0 0 0 1.008,0"
         transform="translate(-511.419,-338.905)"
         class="a"
         id="path436"
         style="fill:#ffffff" />
      <path
         d="m 569.117,369 -0.164,0.023 c -0.355,0.045 -0.362,0.046 -0.548,0.065 -0.1,0.009 -0.241,0.023 -0.344,0.031 a 6.57,6.57 0 0 1 -1.024,0 c 0.357,-0.029 0.756,-0.075 1.188,-0.139 a 2.723,2.723 0 0 0 0.892,0.02"
         transform="translate(-519.955,-337.657)"
         class="a"
         id="path438"
         style="fill:#ffffff" />
      <path
         d="m 581.074,366.55 c -0.174,0.036 -0.344,0.068 -0.507,0.1 l -0.059,0.01 -0.243,0.039 a 2.484,2.484 0 0 1 -0.861,-0.025 c 0.437,-0.066 0.905,-0.15 1.4,-0.252 a 0.352,0.352 0 0 0 0.273,0.131"
         transform="translate(-531.038,-335.361)"
         class="a"
         id="path440"
         style="fill:#ffffff" />
      <path
         d="m 594.9,363.255 c -0.249,0.065 -0.513,0.128 -0.783,0.185 -0.064,0.008 -0.139,-0.041 -0.224,-0.142 0.493,-0.1 0.972,-0.217 1.426,-0.336 a 0.845,0.845 0 0 1 -0.419,0.293"
         transform="translate(-544.022,-332.264)"
         class="a"
         id="path442"
         style="fill:#ffffff" />
      <path
         d="m 604.945,359.556 c -0.124,0.039 -0.29,0.091 -0.415,0.129 l -0.254,0.073 -0.154,0.042 a 0.984,0.984 0 0 0 0.465,-0.305 c 0.45,-0.12 0.875,-0.245 1.263,-0.372 a 3.9,3.9 0 0 1 -0.906,0.434"
         transform="translate(-553.187,-328.823)"
         class="a"
         id="path444"
         style="fill:#ffffff" />
      <path
         d="m 613.849,355.582 c -0.182,0.074 -0.426,0.172 -0.61,0.242 -0.164,0.059 -0.383,0.137 -0.548,0.193 a 4.184,4.184 0 0 0 0.924,-0.44 c 0.383,-0.127 0.728,-0.255 1.024,-0.379 a 8.28,8.28 0 0 1 -0.789,0.383"
         transform="translate(-560.864,-325.307)"
         class="a"
         id="path446"
         style="fill:#ffffff" />
      <path
         d="m 625.771,352.845 c -0.614,0.3 -0.614,0.3 -0.947,0.445 q 0.387,-0.166 0.753,-0.368 c 0.185,-0.079 0.35,-0.158 0.491,-0.233 l -0.3,0.156"
         transform="translate(-571.737,-323.058)"
         class="a"
         id="path448"
         style="fill:#ffffff" />
      <path
         d="m 624.89,352.055 c -0.614,0.3 -0.614,0.3 -0.947,0.445 q 0.387,-0.166 0.753,-0.368 c 0.185,-0.08 0.35,-0.158 0.491,-0.233 l -0.3,0.156 m 0,0 0.465,-0.247 a 6.771,6.771 0 0 1 -0.617,0.292 8.3,8.3 0 0 1 -0.9,0.444 l 0.09,-0.038 c 0.518,-0.232 0.674,-0.3 0.959,-0.45"
         transform="translate(-570.856,-322.268)"
         class="a"
         id="path450"
         style="fill:#ffffff" />
      <path
         d="m 592.252,367.664 h -0.008 c -0.128,0.026 -0.254,0.051 -0.377,0.073 l 0.385,-0.075"
         transform="translate(-542.205,-336.477)"
         class="a"
         id="path452"
         style="fill:#ffffff" />
      <path
         d="m 596.321,365.8 h 0.007 c -0.25,0.066 -0.514,0.128 -0.785,0.185 l -0.051,0.011 h 0.008 l 0.05,-0.01 0.411,-0.092 c 0.108,-0.026 0.251,-0.062 0.359,-0.09"
         transform="translate(-545.454,-334.805)"
         class="a"
         id="path454"
         style="fill:#ffffff" />
      <path
         d="m 603.514,365.489 0.088,-0.024 -0.13,0.034 h -0.007 l 0.049,-0.013"
         transform="translate(-552.598,-334.507)"
         class="a"
         id="path456"
         style="fill:#ffffff" />
      <path
         d="m 649.987,214.315 0.323,-0.134 a 20.149,20.149 0 0 0 -0.364,-2.265 c -0.948,0.4 -2.051,0.807 -3.274,1.213 q 0.219,0.99 0.359,1.944 c 1.017,-0.246 2.021,-0.502 2.956,-0.758 z"
         transform="translate(-591.315,-196.913)"
         class="a"
         id="path458"
         style="fill:#ffffff" />
      <g
         transform="translate(51.041,16.307)"
         id="g464"
         style="fill:#ffffff">
        <path
           d="m 609.529,226.383 q -0.144,-0.942 -0.358,-1.92 c -1.241,0.405 -2.6,0.806 -4.04,1.19 q 0.188,0.844 0.346,1.654 c 1.275,-0.277 2.671,-0.592 4.052,-0.924 z"
           transform="translate(-605.131,-224.463)"
           class="a"
           id="path460"
           style="fill:#ffffff" />
        <path
           d="m 609.252,254.572 c 0.009,0.049 0.019,0.1 0.028,0.148 q 0.581,-0.155 1.143,-0.313 -0.57,0.083 -1.171,0.165 z"
           transform="translate(-608.824,-251.295)"
           class="a"
           id="path462"
           style="fill:#ffffff" />
      </g>
      <g
         transform="translate(46.156,17.582)"
         id="g470"
         style="fill:#ffffff">
        <path
           d="m 563.031,238.38 q -0.159,-0.8 -0.345,-1.638 c -1.453,0.381 -2.985,0.744 -4.56,1.075 q 0.173,0.769 0.346,1.5 c 0.703,-0.135 2.442,-0.481 4.559,-0.937 z"
           transform="translate(-558.126,-236.741)"
           class="a"
           id="path466"
           style="fill:#ffffff" />
        <path
           d="m 561.516,256.986 c 0.054,0.232 0.109,0.463 0.163,0.69 1.557,-0.327 3.07,-0.686 4.505,-1.062 -0.012,-0.062 -0.024,-0.126 -0.036,-0.188 q -2.118,0.284 -4.632,0.56 z"
           transform="translate(-561.164,-254.38)"
           class="a"
           id="path468"
           style="fill:#ffffff" />
      </g>
      <path
         d="m 612.363,250.244 c -0.8,0.242 -1.641,0.48 -2.512,0.712 q 0.2,1.079 0.336,2.084 c 1.37,-0.365 2.662,-0.746 3.843,-1.132 -0.03,-0.618 -0.087,-1.257 -0.169,-1.91 q -0.717,0.124 -1.498,0.246 z"
         transform="translate(-558.32,-231.038)"
         class="a"
         id="path472"
         style="fill:#ffffff" />
      <path
         d="m 651.1,243.974 c 0.077,0.64 0.129,1.265 0.155,1.872 1.164,-0.386 2.213,-0.775 3.114,-1.153 0.012,-0.447 0.005,-0.9 -0.017,-1.363 -0.952,0.215 -2.033,0.43 -3.252,0.644 z"
         transform="translate(-595.283,-225.062)"
         class="a"
         id="path474"
         style="fill:#ffffff" />
      <g
         transform="translate(59.276,16.244)"
         id="g480"
         style="fill:#ffffff">
        <path
           d="m 692.751,224.172 c 0,-0.1 -0.008,-0.206 -0.014,-0.31 a 13.727,13.727 0 0 1 -1.459,0.781 c 0.532,-0.159 1.028,-0.316 1.473,-0.471 z"
           transform="translate(-690.561,-223.862)"
           class="a"
           id="path476"
           style="fill:#ffffff" />
        <path
           d="m 684.381,237.941 c 0.02,0.448 0.024,0.891 0.01,1.326 a 15.859,15.859 0 0 0 2.151,-1.088 c 0.021,-0.268 0.032,-0.538 0.039,-0.81 -0.642,0.19 -1.373,0.381 -2.2,0.572 z"
           transform="translate(-684.381,-235.965)"
           class="a"
           id="path478"
           style="fill:#ffffff" />
      </g>
      <g
         transform="translate(61.555,15.196)"
         id="g486"
         style="fill:#ffffff">
        <path
           d="m 707.5,214.7 c 0,-0.31 0,-0.62 -0.016,-0.933 a 2.507,2.507 0 0 1 -0.988,0.969 c 0.007,0.116 0.011,0.231 0.015,0.346 0.374,-0.125 0.706,-0.253 0.989,-0.382 z"
           transform="translate(-706.481,-213.772)"
           class="a"
           id="path482"
           style="fill:#ffffff" />
        <path
           d="m 706.361,234.452 c -0.008,0.258 -0.019,0.514 -0.04,0.769 a 2.419,2.419 0 0 0 0.953,-0.935 c 0,-0.044 0.007,-0.089 0.01,-0.133 -0.284,0.099 -0.591,0.199 -0.923,0.299 z"
           transform="translate(-706.321,-232.035)"
           class="a"
           id="path484"
           style="fill:#ffffff" />
      </g>
      <path
         d="m 574.93,186.182 c 1,0.362 19.134,5.8 -16.719,7.9 0,0 24.924,-3.231 17.139,-5.794 z"
         transform="translate(-512.046,-173.853)"
         class="a"
         id="path488"
         style="fill:#ffffff" />
      <path
         d="m 438.452,241.951 q 0.1,0.89 0.3,1.78 a 26.333,26.333 0 0 0 2.912,-0.076 c -0.106,-0.484 -0.195,-0.97 -0.27,-1.455 -1.084,-0.073 -2.062,-0.156 -2.942,-0.249 z"
         transform="translate(-404.731,-223.827)"
         class="a"
         id="path490"
         style="fill:#ffffff" />
      <g
         transform="translate(40.853,16.224)"
         id="g496"
         style="fill:#ffffff">
        <path
           d="m 511.644,226.025 0.346,-0.07 q -0.258,-1.151 -0.493,-2.289 c -1.549,0.32 -3.029,0.585 -4.409,0.795 q 0.079,0.49 0.172,0.983 c 1.864,0.266 3.481,0.471 4.384,0.581 z"
           transform="translate(-507.088,-223.666)"
           class="a"
           id="path492"
           style="fill:#ffffff" />
        <path
           d="m 509.831,246.386 c 0.049,0.244 0.1,0.489 0.154,0.733 1.171,-0.178 2.415,-0.4 3.711,-0.653 q -2.073,-0.023 -3.865,-0.08 z"
           transform="translate(-509.546,-244.025)"
           class="a"
           id="path494"
           style="fill:#ffffff" />
      </g>
      <g
         transform="translate(36.917,17.065)"
         id="g502"
         style="fill:#ffffff">
        <path
           d="m 477.32,232.65 c -0.054,-0.3 -0.106,-0.594 -0.152,-0.89 -1.118,0.165 -2.164,0.293 -3.126,0.383 1.107,0.184 2.226,0.357 3.278,0.507 z"
           transform="translate(-473.539,-231.76)"
           class="a"
           id="path498"
           style="fill:#ffffff" />
        <path
           d="m 469.214,244.508 c 0.074,0.473 0.161,0.946 0.265,1.418 1.141,-0.091 2.417,-0.239 3.8,-0.444 -0.058,-0.263 -0.113,-0.527 -0.165,-0.79 -1.429,-0.046 -2.725,-0.109 -3.9,-0.184 z"
           transform="translate(-469.214,-243.183)"
           class="a"
           id="path500"
           style="fill:#ffffff" />
      </g>
      <path
         d="m 470.3,210.283 c -0.116,-0.763 -0.208,-1.521 -0.277,-2.27 -1.313,0.194 -2.528,0.335 -3.612,0.422 0.012,0.755 0.059,1.518 0.144,2.285 1.121,-0.09 2.38,-0.236 3.745,-0.437 z"
         transform="translate(-429.781,-193.416)"
         class="a"
         id="path504"
         style="fill:#ffffff" />
      <path
         d="m 440.171,214.509 c -0.081,-0.757 -0.125,-1.512 -0.133,-2.258 a 25,25 0 0 1 -2.769,0.072 q -0.038,0.809 0,1.628 c 0.893,0.193 1.883,0.38 2.902,0.558 z"
         transform="translate(-403.653,-197.213)"
         class="a"
         id="path506"
         style="fill:#ffffff" />
      <path
         d="m 420.513,212.029 q -0.03,-0.8 0.009,-1.6 a 5.886,5.886 0 0 1 -1.715,-0.283 c -0.042,0.48 -0.059,0.964 -0.057,1.45 0.519,0.147 1.115,0.292 1.763,0.433 z"
         transform="translate(-387.077,-195.329)"
         class="a"
         id="path508"
         style="fill:#ffffff" />
      <path
         d="m 413.5,206.223 c 0.145,0.046 0.3,0.092 0.46,0.138 0,-0.49 0.017,-0.977 0.059,-1.46 -0.324,-0.144 -0.485,-0.333 -0.462,-0.57 -0.031,0.56 -0.05,1.269 -0.057,1.892 z"
         transform="translate(-382.377,-190.116)"
         class="a"
         id="path510"
         style="fill:#ffffff" />
      <path
         d="m 363.631,187.144 c -3.561,0.448 -15.811,7.607 16.57,6.381 0,0 -24.686,-1.361 -16.83,-4.483 z"
         transform="translate(-332.986,-174.715)"
         class="a"
         id="path512"
         style="fill:#ffffff" />
    </g>
    <g
       transform="translate(0,7.09)"
       id="g520"
       style="fill:#ffffff">
      <path
         d="m 122.823,-441.1 q -0.872,7.5 -4.867,11.039 -4.776,4.236 -15.033,4.231 -10.4,0 -14.227,-3.838 Q 85.179,-433.2 86.1,-441.1 l 2.117,-18.224 h 10.45 l -2.121,18.224 c -0.327,2.815 0.1,5.033 1.291,6.637 a 6.283,6.283 0 0 0 5.376,2.4 8.672,8.672 0 0 0 5.845,-2.062 10.364,10.364 0 0 0 3.314,-6.972 l 2.117,-18.224 h 10.655 z m 103.3,-18.224 -3.8,32.7 H 208.13 l -12.3,-22.144 -2.573,22.144 h -20.864 l 0.3,-9.419 a 4.7,4.7 0 0 0 -0.62,-1.776 4.719,4.719 0 0 0 -1.5,-1.306 0.9,0.9 0 0 0 -0.229,-0.069 q -1.587,0 -5.125,-0.1 c -2.447,-0.065 -3.752,-0.1 -3.925,-0.1 l -1.483,12.766 h -10.323 l 4.052,-32.707 21.269,0.007 a 13.988,13.988 0 0 1 7.665,2.062 6.529,6.529 0 0 1 3.354,6.628 7.726,7.726 0 0 1 -2.688,4.967 12.716,12.716 0 0 1 -5.417,2.741 l -0.046,0.4 a 10.648,10.648 0 0 1 2.477,0.581 c 2.547,0.945 3.1,2.546 3.359,5.253 l 0.061,9.265 3.706,-31.9 h 14.877 l 11.675,21.645 2.515,-21.645 z m -52.726,7.171 a 5.906,5.906 0 0 0 -3.5,-1.129 h -6.98 l -0.924,7.954 h 7.071 a 6.971,6.971 0 0 0 3.914,-1.08 4.085,4.085 0 0 0 1.818,-3.044 2.83,2.83 0 0 0 -1.403,-2.703 z"
         transform="translate(-85.906,461.995)"
         class="b"
         id="path516"
         style="fill:#ffffff" />
      <path
         d="m 193.692,-443.974 -1.472,12.668 h -10.245 l -0.653,5.31 h 28.388 l 5.005,-40.68 h -28.388 l -0.327,2.669 h 28.364 l -0.814,6.539 h -18.29 l -0.8,6.857 h 16.41 l -0.771,6.637 z"
         transform="translate(-146.732,466.676)"
         class="c"
         id="path518"
         style="fill:#ffffff" />
    </g>
    <rect
       width="54.152"
       height="1.169"
       transform="rotate(-84.004,106.37536,-57.997799)"
       class="d"
       id="rect522"
       style="fill:#ffffff"
       x="0"
       y="0" />
  </g>
</svg>
